<svg width="300" height="300" viewBox="0 0 300 300" xmlns="http://www.w3.org/2000/svg" style="background:white; border:1px solid #eee;">
    <defs>
      <marker id="arrowhead" markerWidth="10" markerHeight="7" refX="9" refY="3.5" orient="auto">
        <polygon points="0 0, 10 3.5, 0 7" fill="#888" />
      </marker>
    </defs>
    <!-- Axes -->
    <line x1="10" y1="240" x2="290" y2="240" stroke="#888" stroke-width="1" marker-end="url(#arrowhead)" />
    <line x1="205.71428571428572" y1="290" x2="205.71428571428572" y2="10" stroke="#888" stroke-width="1" marker-end="url(#arrowhead)" />
    <!-- Graph -->
    <path d="M 20.0 160.0 L 22.6 165.5 L 25.2 170.8 L 27.8 175.9 L 30.4 180.8 L 33.0 185.6 L 35.6 190.1 L 38.2 194.4 L 40.8 198.5 L 43.4 202.5 L 46.0 206.2 L 48.6 209.7 L 51.2 213.1 L 53.8 216.2 L 56.4 219.2 L 59.0 222.0 L 61.6 224.5 L 64.2 226.9 L 66.8 229.0 L 69.4 231.0 L 72.0 232.8 L 74.6 234.4 L 77.2 235.8 L 79.8 237.0 L 82.4 238.0 L 85.0 238.8 L 87.6 239.4 L 90.2 239.8 L 92.8 240.0 L 95.4 240.0 L 98.0 239.8 L 100.6 239.4 L 103.2 238.8 L 105.8 238.1 L 108.4 237.1 L 111.0 235.9 L 113.6 234.6 L 116.2 233.0 L 118.8 231.3 L 121.4 229.3 L 124.0 227.2 L 126.6 224.9 L 129.2 222.3 L 131.8 219.6 L 134.4 216.7 L 137.0 213.6 L 139.6 210.2 L 142.2 206.7 L 144.8 203.0 L 147.4 199.1 L 150.0 195.0 L 152.6 190.7 L 155.2 186.2 L 157.8 181.5 L 160.4 176.6 L 163.0 171.5 L 165.6 166.3 L 168.2 160.8 L 170.8 155.1 L 173.4 149.3 L 176.0 143.2 L 178.6 136.9 L 181.2 130.5 L 183.8 123.8 L 186.4 117.0 L 189.0 110.0 L 191.6 102.7 L 194.2 95.3 L 196.8 87.6 L 199.4 79.8 L 202.0 71.8 L 204.6 63.6 L 207.2 55.2 L 209.8 46.6 L 212.4 37.8 L 215.0 28.8 L 217.6 19.6 L 220.2 10.2 L 222.8 0.6 L 225.4 -9.2 L 228.0 -19.2 L 230.6 -29.4 L 233.2 -39.8 L 235.8 -50.3 L 238.4 -61.1 L 241.0 -72.1 L 243.6 -83.2 L 246.2 -94.6 L 248.8 -106.1 L 251.4 -117.9 L 254.0 -129.8 L 256.6 -141.9 L 259.2 -154.3 L 261.8 -166.8 L 264.4 -179.5 L 267.0 -192.5 L 269.6 -205.6 L 272.2 -218.9 L 274.8 -232.4 L 277.4 -246.1 L 280.0 -260.0" fill="none" stroke="blue" stroke-width="2" />
    <!-- Intercepts -->
    <circle cx="94.3" cy="240.0" r="3" fill="red" /><circle cx="94.3" cy="240.0" r="3" fill="red" /><circle cx="205.7" cy="60.0" r="3" fill="red" />
    <!-- Labels -->
    <text x="94.3" y="255.0" font-family="sans-serif" font-size="10" text-anchor="middle" dominant-baseline="hanging" fill="#333">-3</text><text x="94.3" y="255.0" font-family="sans-serif" font-size="10" text-anchor="middle" dominant-baseline="hanging" fill="#333">-3</text><text x="215.7" y="60.0" font-family="sans-serif" font-size="10" text-anchor="start" dominant-baseline="middle" fill="#333">9</text>
    <!-- Equation -->
    <text x="150" y="295" font-family="sans-serif" font-size="12" text-anchor="middle" fill="#666">y = 1x² + 6x + 9</text>
  </svg>