<svg width="300" height="300" viewBox="0 0 300 300" xmlns="http://www.w3.org/2000/svg" style="background:white; border:1px solid #eee;">
    <defs>
      <marker id="arrowhead" markerWidth="10" markerHeight="7" refX="9" refY="3.5" orient="auto">
        <polygon points="0 0, 10 3.5, 0 7" fill="#888" />
      </marker>
    </defs>
    <!-- Axes -->
    <line x1="10" y1="172.1951219512195" x2="290" y2="172.1951219512195" stroke="#888" stroke-width="1" marker-end="url(#arrowhead)" />
    <line x1="215" y1="290" x2="215" y2="10" stroke="#888" stroke-width="1" marker-end="url(#arrowhead)" />
    <!-- Graph -->
    <path d="M 20.0 -81.5 L 22.6 -67.4 L 25.2 -53.7 L 27.8 -40.3 L 30.4 -27.2 L 33.0 -14.5 L 35.6 -2.1 L 38.2 10.0 L 40.8 21.8 L 43.4 33.2 L 46.0 44.4 L 48.6 55.1 L 51.2 65.6 L 53.8 75.8 L 56.4 85.6 L 59.0 95.1 L 61.6 104.3 L 64.2 113.1 L 66.8 121.6 L 69.4 129.8 L 72.0 137.7 L 74.6 145.2 L 77.2 152.5 L 79.8 159.4 L 82.4 165.9 L 85.0 172.2 L 87.6 178.1 L 90.2 183.7 L 92.8 189.0 L 95.4 193.9 L 98.0 198.6 L 100.6 202.9 L 103.2 206.9 L 105.8 210.5 L 108.4 213.8 L 111.0 216.8 L 113.6 219.5 L 116.2 221.9 L 118.8 223.9 L 121.4 225.6 L 124.0 227.0 L 126.6 228.0 L 129.2 228.8 L 131.8 229.2 L 134.4 229.3 L 137.0 229.0 L 139.6 228.4 L 142.2 227.6 L 144.8 226.3 L 147.4 224.8 L 150.0 222.9 L 152.6 220.7 L 155.2 218.2 L 157.8 215.4 L 160.4 212.2 L 163.0 208.7 L 165.6 204.9 L 168.2 200.8 L 170.8 196.3 L 173.4 191.5 L 176.0 186.4 L 178.6 181.0 L 181.2 175.2 L 183.8 169.1 L 186.4 162.7 L 189.0 156.0 L 191.6 148.9 L 194.2 141.5 L 196.8 133.8 L 199.4 125.8 L 202.0 117.4 L 204.6 108.7 L 207.2 99.7 L 209.8 90.4 L 212.4 80.7 L 215.0 70.7 L 217.6 60.4 L 220.2 49.8 L 222.8 38.8 L 225.4 27.5 L 228.0 15.9 L 230.6 4.0 L 233.2 -8.2 L 235.8 -20.8 L 238.4 -33.7 L 241.0 -47.0 L 243.6 -60.5 L 246.2 -74.4 L 248.8 -88.6 L 251.4 -103.1 L 254.0 -118.0 L 256.6 -133.2 L 259.2 -148.7 L 261.8 -164.5 L 264.4 -180.7 L 267.0 -197.1 L 269.6 -213.9 L 272.2 -231.1 L 274.8 -248.5 L 277.4 -266.3 L 280.0 -284.4" fill="none" stroke="blue" stroke-width="2" />
    <!-- Intercepts -->
    <circle cx="182.5" cy="172.2" r="3" fill="red" /><circle cx="85.0" cy="172.2" r="3" fill="red" /><circle cx="215.0" cy="70.7" r="3" fill="red" />
    <!-- Labels -->
    <text x="182.5" y="187.2" font-family="sans-serif" font-size="10" text-anchor="middle" dominant-baseline="hanging" fill="#333">-1</text><text x="85.0" y="187.2" font-family="sans-serif" font-size="10" text-anchor="middle" dominant-baseline="hanging" fill="#333">-4</text><text x="225.0" y="70.7" font-family="sans-serif" font-size="10" text-anchor="start" dominant-baseline="middle" fill="#333">4</text>
    <!-- Equation -->
    <text x="150" y="295" font-family="sans-serif" font-size="12" text-anchor="middle" fill="#666">y = 1x² + 5x + 4</text>
  </svg>