<svg width="300" height="300" viewBox="0 0 300 300" xmlns="http://www.w3.org/2000/svg" style="background:white; border:1px solid #eee;">
    <defs>
      <marker id="arrowhead" markerWidth="10" markerHeight="7" refX="9" refY="3.5" orient="auto">
        <polygon points="0 0, 10 3.5, 0 7" fill="#888" />
      </marker>
    </defs>
    <!-- Axes -->
    <line x1="10" y1="217.37226277372264" x2="290" y2="217.37226277372264" stroke="#888" stroke-width="1" marker-end="url(#arrowhead)" />
    <line x1="63.33333333333333" y1="290" x2="63.33333333333333" y2="10" stroke="#888" stroke-width="1" marker-end="url(#arrowhead)" />
    <!-- Graph -->
    <path d="M 20.0 -162.2 L 22.6 -148.6 L 25.2 -135.3 L 27.8 -122.2 L 30.4 -109.3 L 33.0 -96.6 L 35.6 -84.1 L 38.2 -71.9 L 40.8 -59.9 L 43.4 -48.1 L 46.0 -36.5 L 48.6 -25.1 L 51.2 -14.0 L 53.8 -3.0 L 56.4 7.7 L 59.0 18.2 L 61.6 28.5 L 64.2 38.5 L 66.8 48.3 L 69.4 58.0 L 72.0 67.4 L 74.6 76.6 L 77.2 85.5 L 79.8 94.3 L 82.4 102.8 L 85.0 111.1 L 87.6 119.2 L 90.2 127.1 L 92.8 134.7 L 95.4 142.1 L 98.0 149.4 L 100.6 156.4 L 103.2 163.1 L 105.8 169.7 L 108.4 176.0 L 111.0 182.1 L 113.6 188.1 L 116.2 193.7 L 118.8 199.2 L 121.4 204.4 L 124.0 209.5 L 126.6 214.3 L 129.2 218.9 L 131.8 223.3 L 134.4 227.4 L 137.0 231.3 L 139.6 235.1 L 142.2 238.6 L 144.8 241.8 L 147.4 244.9 L 150.0 247.7 L 152.6 250.4 L 155.2 252.8 L 157.8 255.0 L 160.4 256.9 L 163.0 258.7 L 165.6 260.2 L 168.2 261.5 L 170.8 262.6 L 173.4 263.5 L 176.0 264.1 L 178.6 264.6 L 181.2 264.8 L 183.8 264.8 L 186.4 264.6 L 189.0 264.1 L 191.6 263.5 L 194.2 262.6 L 196.8 261.5 L 199.4 260.2 L 202.0 258.7 L 204.6 256.9 L 207.2 255.0 L 209.8 252.8 L 212.4 250.4 L 215.0 247.7 L 217.6 244.9 L 220.2 241.8 L 222.8 238.6 L 225.4 235.1 L 228.0 231.3 L 230.6 227.4 L 233.2 223.3 L 235.8 218.9 L 238.4 214.3 L 241.0 209.5 L 243.6 204.4 L 246.2 199.2 L 248.8 193.7 L 251.4 188.1 L 254.0 182.1 L 256.6 176.0 L 259.2 169.7 L 261.8 163.1 L 264.4 156.4 L 267.0 149.4 L 269.6 142.1 L 272.2 134.7 L 274.8 127.1 L 277.4 119.2 L 280.0 111.1" fill="none" stroke="blue" stroke-width="2" />
    <!-- Intercepts -->
    <circle cx="236.7" cy="217.4" r="3" fill="red" /><circle cx="128.3" cy="217.4" r="3" fill="red" /><circle cx="63.3" cy="35.2" r="3" fill="red" />
    <!-- Labels -->
    <text x="236.7" y="232.4" font-family="sans-serif" font-size="10" text-anchor="middle" dominant-baseline="hanging" fill="#333">8</text><text x="128.3" y="232.4" font-family="sans-serif" font-size="10" text-anchor="middle" dominant-baseline="hanging" fill="#333">3</text><text x="73.3" y="35.2" font-family="sans-serif" font-size="10" text-anchor="start" dominant-baseline="middle" fill="#333">24</text>
    <!-- Equation -->
    <text x="150" y="295" font-family="sans-serif" font-size="12" text-anchor="middle" fill="#666">y = 1x² + -11x + 24</text>
  </svg>