<svg width="300" height="300" viewBox="0 0 300 300" xmlns="http://www.w3.org/2000/svg" style="background:white; border:1px solid #eee;">
    <defs>
      <marker id="arrowhead" markerWidth="10" markerHeight="7" refX="9" refY="3.5" orient="auto">
        <polygon points="0 0, 10 3.5, 0 7" fill="#888" />
      </marker>
    </defs>
    <!-- Axes -->
    <line x1="10" y1="26.117647058823536" x2="290" y2="26.117647058823536" stroke="#888" stroke-width="1" marker-end="url(#arrowhead)" />
    <line x1="150" y1="290" x2="150" y2="10" stroke="#888" stroke-width="1" marker-end="url(#arrowhead)" />
    <!-- Graph -->
    <path d="M 20.0 -96.2 L 22.6 -81.6 L 25.2 -67.2 L 27.8 -53.2 L 30.4 -39.4 L 33.0 -25.9 L 35.6 -12.7 L 38.2 0.1 L 40.8 12.7 L 43.4 25.0 L 46.0 37.0 L 48.6 48.7 L 51.2 60.1 L 53.8 71.2 L 56.4 82.0 L 59.0 92.5 L 61.6 102.7 L 64.2 112.7 L 66.8 122.3 L 69.4 131.6 L 72.0 140.6 L 74.6 149.4 L 77.2 157.8 L 79.8 166.0 L 82.4 173.8 L 85.0 181.4 L 87.6 188.6 L 90.2 195.6 L 92.8 202.2 L 95.4 208.6 L 98.0 214.7 L 100.6 220.4 L 103.2 225.9 L 105.8 231.1 L 108.4 236.0 L 111.0 240.6 L 113.6 244.9 L 116.2 248.9 L 118.8 252.6 L 121.4 256.0 L 124.0 259.1 L 126.6 261.9 L 129.2 264.4 L 131.8 266.6 L 134.4 268.6 L 137.0 270.2 L 139.6 271.5 L 142.2 272.5 L 144.8 273.3 L 147.4 273.7 L 150.0 273.9 L 152.6 273.7 L 155.2 273.3 L 157.8 272.5 L 160.4 271.5 L 163.0 270.2 L 165.6 268.6 L 168.2 266.6 L 170.8 264.4 L 173.4 261.9 L 176.0 259.1 L 178.6 256.0 L 181.2 252.6 L 183.8 248.9 L 186.4 244.9 L 189.0 240.6 L 191.6 236.0 L 194.2 231.1 L 196.8 225.9 L 199.4 220.4 L 202.0 214.7 L 204.6 208.6 L 207.2 202.2 L 209.8 195.6 L 212.4 188.6 L 215.0 181.4 L 217.6 173.8 L 220.2 166.0 L 222.8 157.8 L 225.4 149.4 L 228.0 140.6 L 230.6 131.6 L 233.2 122.3 L 235.8 112.7 L 238.4 102.7 L 241.0 92.5 L 243.6 82.0 L 246.2 71.2 L 248.8 60.1 L 251.4 48.7 L 254.0 37.0 L 256.6 25.0 L 259.2 12.7 L 261.8 0.1 L 264.4 -12.7 L 267.0 -25.9 L 269.6 -39.4 L 272.2 -53.2 L 274.8 -67.2 L 277.4 -81.6 L 280.0 -96.2" fill="none" stroke="blue" stroke-width="2" />
    <!-- Intercepts -->
    <circle cx="256.4" cy="26.1" r="3" fill="red" /><circle cx="43.6" cy="26.1" r="3" fill="red" /><circle cx="150.0" cy="273.9" r="3" fill="red" />
    <!-- Labels -->
    <text x="256.4" y="41.1" font-family="sans-serif" font-size="10" text-anchor="middle" dominant-baseline="hanging" fill="#333">9</text><text x="43.6" y="41.1" font-family="sans-serif" font-size="10" text-anchor="middle" dominant-baseline="hanging" fill="#333">-9</text><text x="160.0" y="273.9" font-family="sans-serif" font-size="10" text-anchor="start" dominant-baseline="middle" fill="#333">-81</text>
    <!-- Equation -->
    <text x="150" y="295" font-family="sans-serif" font-size="12" text-anchor="middle" fill="#666">y = 1x² + 0x + -81</text>
  </svg>