<svg width="300" height="300" viewBox="0 0 300 300" xmlns="http://www.w3.org/2000/svg" style="background:white; border:1px solid #eee;">
    <defs>
      <marker id="arrowhead" markerWidth="10" markerHeight="7" refX="9" refY="3.5" orient="auto">
        <polygon points="0 0, 10 3.5, 0 7" fill="#888" />
      </marker>
    </defs>
    <!-- Axes -->
    <line x1="10" y1="166.25" x2="290" y2="166.25" stroke="#888" stroke-width="1" marker-end="url(#arrowhead)" />
    <line x1="176" y1="290" x2="176" y2="10" stroke="#888" stroke-width="1" marker-end="url(#arrowhead)" />
    <!-- Graph -->
    <path d="M 20.0 -613.8 L 22.6 -580.0 L 25.2 -547.0 L 27.8 -514.7 L 30.4 -483.1 L 33.0 -452.3 L 35.6 -422.2 L 38.2 -392.8 L 40.8 -364.2 L 43.4 -336.2 L 46.0 -309.1 L 48.6 -282.6 L 51.2 -256.9 L 53.8 -231.9 L 56.4 -207.7 L 59.0 -184.1 L 61.6 -161.4 L 64.2 -139.3 L 66.8 -118.0 L 69.4 -97.4 L 72.0 -77.5 L 74.6 -58.4 L 77.2 -40.0 L 79.8 -22.3 L 82.4 -5.4 L 85.0 10.9 L 87.6 26.3 L 90.2 41.1 L 92.8 55.1 L 95.4 68.4 L 98.0 80.9 L 100.6 92.8 L 103.2 103.9 L 105.8 114.2 L 108.4 123.8 L 111.0 132.7 L 113.6 140.9 L 116.2 148.3 L 118.8 155.0 L 121.4 161.0 L 124.0 166.3 L 126.6 170.8 L 129.2 174.5 L 131.8 177.6 L 134.4 179.9 L 137.0 181.5 L 139.6 182.3 L 142.2 182.5 L 144.8 181.9 L 147.4 180.5 L 150.0 178.4 L 152.6 175.6 L 155.2 172.1 L 157.8 167.8 L 160.4 162.8 L 163.0 157.1 L 165.6 150.7 L 168.2 143.5 L 170.8 135.5 L 173.4 126.9 L 176.0 117.5 L 178.6 107.4 L 181.2 96.5 L 183.8 85.0 L 186.4 72.6 L 189.0 59.6 L 191.6 45.8 L 194.2 31.3 L 196.8 16.1 L 199.4 0.1 L 202.0 -16.6 L 204.6 -34.0 L 207.2 -52.2 L 209.8 -71.0 L 212.4 -90.7 L 215.0 -111.0 L 217.6 -132.1 L 220.2 -153.9 L 222.8 -176.5 L 225.4 -199.7 L 228.0 -223.7 L 230.6 -248.5 L 233.2 -274.0 L 235.8 -300.2 L 238.4 -327.1 L 241.0 -354.8 L 243.6 -383.2 L 246.2 -412.3 L 248.8 -442.2 L 251.4 -472.7 L 254.0 -504.1 L 256.6 -536.1 L 259.2 -568.9 L 261.8 -602.4 L 264.4 -636.7 L 267.0 -671.6 L 269.6 -707.3 L 272.2 -743.8 L 274.8 -781.0 L 277.4 -818.9 L 280.0 -857.5" fill="none" stroke="blue" stroke-width="2" />
    <!-- Intercepts -->
    <circle cx="158.7" cy="166.3" r="3" fill="red" /><circle cx="124.0" cy="166.3" r="3" fill="red" /><circle cx="176.0" cy="117.5" r="3" fill="red" />
    <!-- Labels -->
    <text x="158.7" y="181.3" font-family="sans-serif" font-size="10" text-anchor="middle" dominant-baseline="hanging" fill="#333">-0.3</text><text x="124.0" y="181.3" font-family="sans-serif" font-size="10" text-anchor="middle" dominant-baseline="hanging" fill="#333">-1</text><text x="186.0" y="117.5" font-family="sans-serif" font-size="10" text-anchor="start" dominant-baseline="middle" fill="#333">1</text>
    <!-- Equation -->
    <text x="150" y="295" font-family="sans-serif" font-size="12" text-anchor="middle" fill="#666">y = 3x² + 4x + 1</text>
  </svg>