<svg width="300" height="300" viewBox="0 0 300 300" xmlns="http://www.w3.org/2000/svg" style="background:white; border:1px solid #eee;">
    <defs>
      <marker id="arrowhead" markerWidth="10" markerHeight="7" refX="9" refY="3.5" orient="auto">
        <polygon points="0 0, 10 3.5, 0 7" fill="#888" />
      </marker>
    </defs>
    <!-- Axes -->
    <line x1="10" y1="244" x2="290" y2="244" stroke="#888" stroke-width="1" marker-end="url(#arrowhead)" />
    <line x1="215" y1="290" x2="215" y2="10" stroke="#888" stroke-width="1" marker-end="url(#arrowhead)" />
    <!-- Graph -->
    <path d="M 20.0 148.0 L 22.6 154.3 L 25.2 160.4 L 27.8 166.3 L 30.4 172.0 L 33.0 177.4 L 35.6 182.7 L 38.2 187.8 L 40.8 192.6 L 43.4 197.3 L 46.0 201.8 L 48.6 206.0 L 51.2 210.1 L 53.8 213.9 L 56.4 217.5 L 59.0 221.0 L 61.6 224.2 L 64.2 227.2 L 66.8 230.0 L 69.4 232.6 L 72.0 235.0 L 74.6 237.2 L 77.2 239.2 L 79.8 241.0 L 82.4 242.6 L 85.0 244.0 L 87.6 245.2 L 90.2 246.2 L 92.8 246.9 L 95.4 247.5 L 98.0 247.8 L 100.6 248.0 L 103.2 247.9 L 105.8 247.7 L 108.4 247.2 L 111.0 246.6 L 113.6 245.7 L 116.2 244.6 L 118.8 243.3 L 121.4 241.8 L 124.0 240.2 L 126.6 238.3 L 129.2 236.2 L 131.8 233.9 L 134.4 231.4 L 137.0 228.6 L 139.6 225.7 L 142.2 222.6 L 144.8 219.3 L 147.4 215.7 L 150.0 212.0 L 152.6 208.1 L 155.2 203.9 L 157.8 199.6 L 160.4 195.0 L 163.0 190.2 L 165.6 185.3 L 168.2 180.1 L 170.8 174.7 L 173.4 169.1 L 176.0 163.4 L 178.6 157.4 L 181.2 151.2 L 183.8 144.8 L 186.4 138.2 L 189.0 131.4 L 191.6 124.3 L 194.2 117.1 L 196.8 109.7 L 199.4 102.1 L 202.0 94.2 L 204.6 86.2 L 207.2 78.0 L 209.8 69.5 L 212.4 60.9 L 215.0 52.0 L 217.6 42.9 L 220.2 33.7 L 222.8 24.2 L 225.4 14.5 L 228.0 4.6 L 230.6 -5.4 L 233.2 -15.7 L 235.8 -26.2 L 238.4 -36.9 L 241.0 -47.8 L 243.6 -59.0 L 246.2 -70.3 L 248.8 -81.8 L 251.4 -93.5 L 254.0 -105.4 L 256.6 -117.6 L 259.2 -129.9 L 261.8 -142.5 L 264.4 -155.2 L 267.0 -168.2 L 269.6 -181.3 L 272.2 -194.7 L 274.8 -208.2 L 277.4 -222.0 L 280.0 -236.0" fill="none" stroke="blue" stroke-width="2" />
    <!-- Intercepts -->
    <circle cx="117.5" cy="244.0" r="3" fill="red" /><circle cx="85.0" cy="244.0" r="3" fill="red" /><circle cx="215.0" cy="52.0" r="3" fill="red" />
    <!-- Labels -->
    <text x="117.5" y="259.0" font-family="sans-serif" font-size="10" text-anchor="middle" dominant-baseline="hanging" fill="#333">-3</text><text x="85.0" y="259.0" font-family="sans-serif" font-size="10" text-anchor="middle" dominant-baseline="hanging" fill="#333">-4</text><text x="225.0" y="52.0" font-family="sans-serif" font-size="10" text-anchor="start" dominant-baseline="middle" fill="#333">12</text>
    <!-- Equation -->
    <text x="150" y="295" font-family="sans-serif" font-size="12" text-anchor="middle" fill="#666">y = 1x² + 7x + 12</text>
  </svg>