<svg width="300" height="300" viewBox="0 0 300 300" xmlns="http://www.w3.org/2000/svg" style="background:white; border:1px solid #eee;">
    <defs>
      <marker id="arrowhead" markerWidth="10" markerHeight="7" refX="9" refY="3.5" orient="auto">
        <polygon points="0 0, 10 3.5, 0 7" fill="#888" />
      </marker>
    </defs>
    <!-- Axes -->
    <line x1="10" y1="255.87628865979383" x2="290" y2="255.87628865979383" stroke="#888" stroke-width="1" marker-end="url(#arrowhead)" />
    <line x1="77.77777777777777" y1="290" x2="77.77777777777777" y2="10" stroke="#888" stroke-width="1" marker-end="url(#arrowhead)" />
    <!-- Graph -->
    <path d="M 20.0 -194.4 L 22.6 -182.0 L 25.2 -169.7 L 27.8 -157.6 L 30.4 -145.6 L 33.0 -133.9 L 35.6 -122.3 L 38.2 -110.9 L 40.8 -99.6 L 43.4 -88.6 L 46.0 -77.7 L 48.6 -67.0 L 51.2 -56.4 L 53.8 -46.0 L 56.4 -35.8 L 59.0 -25.8 L 61.6 -16.0 L 64.2 -6.3 L 66.8 3.2 L 69.4 12.6 L 72.0 21.7 L 74.6 30.7 L 77.2 39.5 L 79.8 48.1 L 82.4 56.6 L 85.0 64.9 L 87.6 73.0 L 90.2 81.0 L 92.8 88.7 L 95.4 96.3 L 98.0 103.7 L 100.6 111.0 L 103.2 118.1 L 105.8 125.0 L 108.4 131.7 L 111.0 138.2 L 113.6 144.6 L 116.2 150.8 L 118.8 156.8 L 121.4 162.7 L 124.0 168.4 L 126.6 173.9 L 129.2 179.2 L 131.8 184.4 L 134.4 189.4 L 137.0 194.2 L 139.6 198.8 L 142.2 203.3 L 144.8 207.6 L 147.4 211.7 L 150.0 215.7 L 152.6 219.4 L 155.2 223.0 L 157.8 226.5 L 160.4 229.7 L 163.0 232.8 L 165.6 235.7 L 168.2 238.4 L 170.8 241.0 L 173.4 243.4 L 176.0 245.6 L 178.6 247.6 L 181.2 249.5 L 183.8 251.2 L 186.4 252.7 L 189.0 254.0 L 191.6 255.2 L 194.2 256.2 L 196.8 257.0 L 199.4 257.7 L 202.0 258.1 L 204.6 258.4 L 207.2 258.6 L 209.8 258.5 L 212.4 258.3 L 215.0 257.9 L 217.6 257.3 L 220.2 256.6 L 222.8 255.7 L 225.4 254.6 L 228.0 253.3 L 230.6 251.9 L 233.2 250.3 L 235.8 248.5 L 238.4 246.5 L 241.0 244.4 L 243.6 242.1 L 246.2 239.6 L 248.8 236.9 L 251.4 234.1 L 254.0 231.1 L 256.6 227.9 L 259.2 224.6 L 261.8 221.1 L 264.4 217.4 L 267.0 213.5 L 269.6 209.5 L 272.2 205.2 L 274.8 200.8 L 277.4 196.3 L 280.0 191.5" fill="none" stroke="blue" stroke-width="2" />
    <!-- Intercepts -->
    <circle cx="222.2" cy="255.9" r="3" fill="red" /><circle cx="193.3" cy="255.9" r="3" fill="red" /><circle cx="77.8" cy="41.4" r="3" fill="red" />
    <!-- Labels -->
    <text x="222.2" y="270.9" font-family="sans-serif" font-size="10" text-anchor="middle" dominant-baseline="hanging" fill="#333">5</text><text x="193.3" y="270.9" font-family="sans-serif" font-size="10" text-anchor="middle" dominant-baseline="hanging" fill="#333">4</text><text x="87.8" y="41.4" font-family="sans-serif" font-size="10" text-anchor="start" dominant-baseline="middle" fill="#333">20</text>
    <!-- Equation -->
    <text x="150" y="295" font-family="sans-serif" font-size="12" text-anchor="middle" fill="#666">y = 1x² + -9x + 20</text>
  </svg>