<svg width="300" height="300" viewBox="0 0 300 300" xmlns="http://www.w3.org/2000/svg" style="background:white; border:1px solid #eee;">
    <defs>
      <marker id="arrowhead" markerWidth="10" markerHeight="7" refX="9" refY="3.5" orient="auto">
        <polygon points="0 0, 10 3.5, 0 7" fill="#888" />
      </marker>
    </defs>
    <!-- Axes -->
    <line x1="10" y1="254" x2="290" y2="254" stroke="#888" stroke-width="1" marker-end="url(#arrowhead)" />
    <line x1="215" y1="290" x2="215" y2="10" stroke="#888" stroke-width="1" marker-end="url(#arrowhead)" />
    <!-- Graph -->
    <path d="M 20.0 202.0 L 22.6 206.1 L 25.2 210.0 L 27.8 213.7 L 30.4 217.3 L 33.0 220.7 L 35.6 224.0 L 38.2 227.0 L 40.8 230.0 L 43.4 232.7 L 46.0 235.3 L 48.6 237.7 L 51.2 239.9 L 53.8 242.0 L 56.4 243.9 L 59.0 245.7 L 61.6 247.3 L 64.2 248.7 L 66.8 249.9 L 69.4 251.0 L 72.0 251.9 L 74.6 252.7 L 77.2 253.3 L 79.8 253.7 L 82.4 253.9 L 85.0 254.0 L 87.6 253.9 L 90.2 253.7 L 92.8 253.3 L 95.4 252.7 L 98.0 251.9 L 100.6 251.0 L 103.2 249.9 L 105.8 248.7 L 108.4 247.3 L 111.0 245.7 L 113.6 243.9 L 116.2 242.0 L 118.8 239.9 L 121.4 237.7 L 124.0 235.3 L 126.6 232.7 L 129.2 230.0 L 131.8 227.0 L 134.4 224.0 L 137.0 220.7 L 139.6 217.3 L 142.2 213.7 L 144.8 210.0 L 147.4 206.1 L 150.0 202.0 L 152.6 197.8 L 155.2 193.3 L 157.8 188.8 L 160.4 184.0 L 163.0 179.1 L 165.6 174.0 L 168.2 168.8 L 170.8 163.4 L 173.4 157.8 L 176.0 152.1 L 178.6 146.2 L 181.2 140.1 L 183.8 133.9 L 186.4 127.5 L 189.0 120.9 L 191.6 114.1 L 194.2 107.2 L 196.8 100.2 L 199.4 92.9 L 202.0 85.5 L 204.6 77.9 L 207.2 70.2 L 209.8 62.3 L 212.4 54.2 L 215.0 46.0 L 217.6 37.6 L 220.2 29.0 L 222.8 20.3 L 225.4 11.4 L 228.0 2.3 L 230.6 -6.9 L 233.2 -16.3 L 235.8 -25.9 L 238.4 -35.6 L 241.0 -45.5 L 243.6 -55.6 L 246.2 -65.8 L 248.8 -76.2 L 251.4 -86.8 L 254.0 -97.5 L 256.6 -108.4 L 259.2 -119.5 L 261.8 -130.7 L 264.4 -142.1 L 267.0 -153.7 L 269.6 -165.4 L 272.2 -177.3 L 274.8 -189.4 L 277.4 -201.6 L 280.0 -214.0" fill="none" stroke="blue" stroke-width="2" />
    <!-- Intercepts -->
    <circle cx="85.0" cy="254.0" r="3" fill="red" /><circle cx="85.0" cy="254.0" r="3" fill="red" /><circle cx="215.0" cy="46.0" r="3" fill="red" />
    <!-- Labels -->
    <text x="85.0" y="269.0" font-family="sans-serif" font-size="10" text-anchor="middle" dominant-baseline="hanging" fill="#333">-4</text><text x="85.0" y="269.0" font-family="sans-serif" font-size="10" text-anchor="middle" dominant-baseline="hanging" fill="#333">-4</text><text x="225.0" y="46.0" font-family="sans-serif" font-size="10" text-anchor="start" dominant-baseline="middle" fill="#333">16</text>
    <!-- Equation -->
    <text x="150" y="295" font-family="sans-serif" font-size="12" text-anchor="middle" fill="#666">y = 1x² + 8x + 16</text>
  </svg>