<svg width="300" height="300" viewBox="0 0 300 300" xmlns="http://www.w3.org/2000/svg" style="background:white; border:1px solid #eee;">
    <defs>
      <marker id="arrowhead" markerWidth="10" markerHeight="7" refX="9" refY="3.5" orient="auto">
        <polygon points="0 0, 10 3.5, 0 7" fill="#888" />
      </marker>
    </defs>
    <!-- Axes -->
    <line x1="10" y1="41.443298969072174" x2="290" y2="41.443298969072174" stroke="#888" stroke-width="1" marker-end="url(#arrowhead)" />
    <line x1="140" y1="290" x2="140" y2="10" stroke="#888" stroke-width="1" marker-end="url(#arrowhead)" />
    <!-- Graph -->
    <path d="M 20.0 -194.4 L 22.6 -176.5 L 25.2 -158.9 L 27.8 -141.7 L 30.4 -124.9 L 33.0 -108.4 L 35.6 -92.2 L 38.2 -76.5 L 40.8 -61.1 L 43.4 -46.0 L 46.0 -31.4 L 48.6 -17.0 L 51.2 -3.1 L 53.8 10.5 L 56.4 23.7 L 59.0 36.6 L 61.6 49.1 L 64.2 61.2 L 66.8 73.0 L 69.4 84.4 L 72.0 95.5 L 74.6 106.2 L 77.2 116.5 L 79.8 126.5 L 82.4 136.1 L 85.0 145.3 L 87.6 154.2 L 90.2 162.7 L 92.8 170.9 L 95.4 178.6 L 98.0 186.1 L 100.6 193.1 L 103.2 199.8 L 105.8 206.2 L 108.4 212.2 L 111.0 217.8 L 113.6 223.0 L 116.2 227.9 L 118.8 232.5 L 121.4 236.6 L 124.0 240.4 L 126.6 243.9 L 129.2 247.0 L 131.8 249.7 L 134.4 252.0 L 137.0 254.0 L 139.6 255.7 L 142.2 256.9 L 144.8 257.8 L 147.4 258.4 L 150.0 258.6 L 152.6 258.4 L 155.2 257.8 L 157.8 256.9 L 160.4 255.7 L 163.0 254.0 L 165.6 252.0 L 168.2 249.7 L 170.8 247.0 L 173.4 243.9 L 176.0 240.4 L 178.6 236.6 L 181.2 232.5 L 183.8 227.9 L 186.4 223.0 L 189.0 217.8 L 191.6 212.2 L 194.2 206.2 L 196.8 199.8 L 199.4 193.1 L 202.0 186.1 L 204.6 178.6 L 207.2 170.9 L 209.8 162.7 L 212.4 154.2 L 215.0 145.3 L 217.6 136.1 L 220.2 126.5 L 222.8 116.5 L 225.4 106.2 L 228.0 95.5 L 230.6 84.4 L 233.2 73.0 L 235.8 61.2 L 238.4 49.1 L 241.0 36.6 L 243.6 23.7 L 246.2 10.5 L 248.8 -3.1 L 251.4 -17.0 L 254.0 -31.4 L 256.6 -46.0 L 259.2 -61.1 L 261.8 -76.5 L 264.4 -92.2 L 267.0 -108.4 L 269.6 -124.9 L 272.2 -141.7 L 274.8 -158.9 L 277.4 -176.5 L 280.0 -194.4" fill="none" stroke="blue" stroke-width="2" />
    <!-- Intercepts -->
    <circle cx="240.0" cy="41.4" r="3" fill="red" /><circle cx="60.0" cy="41.4" r="3" fill="red" /><circle cx="140.0" cy="255.9" r="3" fill="red" />
    <!-- Labels -->
    <text x="240.0" y="56.4" font-family="sans-serif" font-size="10" text-anchor="middle" dominant-baseline="hanging" fill="#333">5</text><text x="60.0" y="56.4" font-family="sans-serif" font-size="10" text-anchor="middle" dominant-baseline="hanging" fill="#333">-4</text><text x="150.0" y="255.9" font-family="sans-serif" font-size="10" text-anchor="start" dominant-baseline="middle" fill="#333">-20</text>
    <!-- Equation -->
    <text x="150" y="295" font-family="sans-serif" font-size="12" text-anchor="middle" fill="#666">y = 1x² + -1x + -20</text>
  </svg>