<svg width="300" height="300" viewBox="0 0 300 300" xmlns="http://www.w3.org/2000/svg" style="background:white; border:1px solid #eee;">
    <defs>
      <marker id="arrowhead" markerWidth="10" markerHeight="7" refX="9" refY="3.5" orient="auto">
        <polygon points="0 0, 10 3.5, 0 7" fill="#888" />
      </marker>
    </defs>
    <!-- Axes -->
    <line x1="10" y1="27.64705882352942" x2="290" y2="27.64705882352942" stroke="#888" stroke-width="1" marker-end="url(#arrowhead)" />
    <line x1="150" y1="290" x2="150" y2="10" stroke="#888" stroke-width="1" marker-end="url(#arrowhead)" />
    <!-- Graph -->
    <path d="M 20.0 -110.0 L 22.6 -94.9 L 25.2 -80.0 L 27.8 -65.5 L 30.4 -51.3 L 33.0 -37.4 L 35.6 -23.7 L 38.2 -10.4 L 40.8 2.6 L 43.4 15.3 L 46.0 27.6 L 48.6 39.7 L 51.2 51.5 L 53.8 63.0 L 56.4 74.1 L 59.0 85.0 L 61.6 95.6 L 64.2 105.8 L 66.8 115.7 L 69.4 125.4 L 72.0 134.7 L 74.6 143.7 L 77.2 152.4 L 79.8 160.9 L 82.4 169.0 L 85.0 176.8 L 87.6 184.3 L 90.2 191.4 L 92.8 198.3 L 95.4 204.9 L 98.0 211.2 L 100.6 217.1 L 103.2 222.8 L 105.8 228.2 L 108.4 233.2 L 111.0 237.9 L 113.6 242.4 L 116.2 246.5 L 118.8 250.3 L 121.4 253.8 L 124.0 257.1 L 126.6 260.0 L 129.2 262.6 L 131.8 264.9 L 134.4 266.8 L 137.0 268.5 L 139.6 269.9 L 142.2 271.0 L 144.8 271.7 L 147.4 272.2 L 150.0 272.4 L 152.6 272.2 L 155.2 271.7 L 157.8 271.0 L 160.4 269.9 L 163.0 268.5 L 165.6 266.8 L 168.2 264.9 L 170.8 262.6 L 173.4 260.0 L 176.0 257.1 L 178.6 253.8 L 181.2 250.3 L 183.8 246.5 L 186.4 242.4 L 189.0 237.9 L 191.6 233.2 L 194.2 228.2 L 196.8 222.8 L 199.4 217.1 L 202.0 211.2 L 204.6 204.9 L 207.2 198.3 L 209.8 191.4 L 212.4 184.3 L 215.0 176.8 L 217.6 169.0 L 220.2 160.9 L 222.8 152.4 L 225.4 143.7 L 228.0 134.7 L 230.6 125.4 L 233.2 115.7 L 235.8 105.8 L 238.4 95.6 L 241.0 85.0 L 243.6 74.1 L 246.2 63.0 L 248.8 51.5 L 251.4 39.7 L 254.0 27.6 L 256.6 15.3 L 259.2 2.6 L 261.8 -10.4 L 264.4 -23.7 L 267.0 -37.4 L 269.6 -51.3 L 272.2 -65.5 L 274.8 -80.0 L 277.4 -94.9 L 280.0 -110.0" fill="none" stroke="blue" stroke-width="2" />
    <!-- Intercepts -->
    <circle cx="254.0" cy="27.6" r="3" fill="red" /><circle cx="46.0" cy="27.6" r="3" fill="red" /><circle cx="150.0" cy="272.4" r="3" fill="red" />
    <!-- Labels -->
    <text x="254.0" y="42.6" font-family="sans-serif" font-size="10" text-anchor="middle" dominant-baseline="hanging" fill="#333">8</text><text x="46.0" y="42.6" font-family="sans-serif" font-size="10" text-anchor="middle" dominant-baseline="hanging" fill="#333">-8</text><text x="160.0" y="272.4" font-family="sans-serif" font-size="10" text-anchor="start" dominant-baseline="middle" fill="#333">-64</text>
    <!-- Equation -->
    <text x="150" y="295" font-family="sans-serif" font-size="12" text-anchor="middle" fill="#666">y = 1x² + 0x + -64</text>
  </svg>