<svg width="300" height="300" viewBox="0 0 300 300" xmlns="http://www.w3.org/2000/svg" style="background:white; border:1px solid #eee;">
    <defs>
      <marker id="arrowhead" markerWidth="10" markerHeight="7" refX="9" refY="3.5" orient="auto">
        <polygon points="0 0, 10 3.5, 0 7" fill="#888" />
      </marker>
    </defs>
    <!-- Axes -->
    <line x1="10" y1="267" x2="290" y2="267" stroke="#888" stroke-width="1" marker-end="url(#arrowhead)" />
    <line x1="72" y1="290" x2="72" y2="10" stroke="#888" stroke-width="1" marker-end="url(#arrowhead)" />
    <!-- Graph -->
    <path d="M 20.0 -149.0 L 22.6 -138.7 L 25.2 -128.5 L 27.8 -118.4 L 30.4 -108.4 L 33.0 -98.6 L 35.6 -88.9 L 38.2 -79.4 L 40.8 -70.0 L 43.4 -60.7 L 46.0 -51.5 L 48.6 -42.5 L 51.2 -33.6 L 53.8 -24.8 L 56.4 -16.1 L 59.0 -7.6 L 61.6 0.8 L 64.2 9.0 L 66.8 17.1 L 69.4 25.1 L 72.0 33.0 L 74.6 40.7 L 77.2 48.3 L 79.8 55.8 L 82.4 63.2 L 85.0 70.4 L 87.6 77.5 L 90.2 84.4 L 92.8 91.2 L 95.4 97.9 L 98.0 104.5 L 100.6 110.9 L 103.2 117.2 L 105.8 123.4 L 108.4 129.5 L 111.0 135.4 L 113.6 141.2 L 116.2 146.8 L 118.8 152.3 L 121.4 157.7 L 124.0 163.0 L 126.6 168.1 L 129.2 173.1 L 131.8 178.0 L 134.4 182.8 L 137.0 187.4 L 139.6 191.9 L 142.2 196.2 L 144.8 200.4 L 147.4 204.5 L 150.0 208.5 L 152.6 212.3 L 155.2 216.0 L 157.8 219.6 L 160.4 223.1 L 163.0 226.4 L 165.6 229.6 L 168.2 232.6 L 170.8 235.5 L 173.4 238.3 L 176.0 241.0 L 178.6 243.5 L 181.2 245.9 L 183.8 248.2 L 186.4 250.4 L 189.0 252.4 L 191.6 254.3 L 194.2 256.0 L 196.8 257.6 L 199.4 259.1 L 202.0 260.5 L 204.6 261.7 L 207.2 262.8 L 209.8 263.8 L 212.4 264.7 L 215.0 265.4 L 217.6 266.0 L 220.2 266.4 L 222.8 266.7 L 225.4 266.9 L 228.0 267.0 L 230.6 266.9 L 233.2 266.7 L 235.8 266.4 L 238.4 266.0 L 241.0 265.4 L 243.6 264.7 L 246.2 263.8 L 248.8 262.8 L 251.4 261.7 L 254.0 260.5 L 256.6 259.1 L 259.2 257.6 L 261.8 256.0 L 264.4 254.3 L 267.0 252.4 L 269.6 250.4 L 272.2 248.2 L 274.8 245.9 L 277.4 243.5 L 280.0 241.0" fill="none" stroke="blue" stroke-width="2" />
    <!-- Intercepts -->
    <circle cx="228.0" cy="267.0" r="3" fill="red" /><circle cx="228.0" cy="267.0" r="3" fill="red" /><circle cx="72.0" cy="33.0" r="3" fill="red" />
    <!-- Labels -->
    <text x="228.0" y="282.0" font-family="sans-serif" font-size="10" text-anchor="middle" dominant-baseline="hanging" fill="#333">6</text><text x="228.0" y="282.0" font-family="sans-serif" font-size="10" text-anchor="middle" dominant-baseline="hanging" fill="#333">6</text><text x="82.0" y="33.0" font-family="sans-serif" font-size="10" text-anchor="start" dominant-baseline="middle" fill="#333">36</text>
    <!-- Equation -->
    <text x="150" y="295" font-family="sans-serif" font-size="12" text-anchor="middle" fill="#666">y = 1x² + -12x + 36</text>
  </svg>