<svg width="300" height="300" viewBox="0 0 300 300" xmlns="http://www.w3.org/2000/svg" style="background:white; border:1px solid #eee;">
    <defs>
      <marker id="arrowhead" markerWidth="10" markerHeight="7" refX="9" refY="3.5" orient="auto">
        <polygon points="0 0, 10 3.5, 0 7" fill="#888" />
      </marker>
    </defs>
    <!-- Axes -->
    <line x1="10" y1="160" x2="290" y2="160" stroke="#888" stroke-width="1" marker-end="url(#arrowhead)" />
    <line x1="222.22222222222223" y1="290" x2="222.22222222222223" y2="10" stroke="#888" stroke-width="1" marker-end="url(#arrowhead)" />
    <!-- Graph -->
    <path d="M 20.0 -80.0 L 22.6 -65.8 L 25.2 -51.8 L 27.8 -38.3 L 30.4 -25.0 L 33.0 -12.0 L 35.6 0.6 L 38.2 12.9 L 40.8 24.8 L 43.4 36.5 L 46.0 47.8 L 48.6 58.8 L 51.2 69.5 L 53.8 79.8 L 56.4 89.8 L 59.0 99.6 L 61.6 108.9 L 64.2 118.0 L 66.8 126.7 L 69.4 135.1 L 72.0 143.2 L 74.6 151.0 L 77.2 158.4 L 79.8 165.5 L 82.4 172.3 L 85.0 178.8 L 87.6 184.9 L 90.2 190.7 L 92.8 196.2 L 95.4 201.4 L 98.0 206.2 L 100.6 210.7 L 103.2 214.9 L 105.8 218.8 L 108.4 222.3 L 111.0 225.6 L 113.6 228.4 L 116.2 231.0 L 118.8 233.3 L 121.4 235.2 L 124.0 236.8 L 126.6 238.1 L 129.2 239.0 L 131.8 239.7 L 134.4 240.0 L 137.0 240.0 L 139.6 239.6 L 142.2 238.9 L 144.8 238.0 L 147.4 236.6 L 150.0 235.0 L 152.6 233.0 L 155.2 230.8 L 157.8 228.1 L 160.4 225.2 L 163.0 221.9 L 165.6 218.4 L 168.2 214.5 L 170.8 210.2 L 173.4 205.7 L 176.0 200.8 L 178.6 195.6 L 181.2 190.1 L 183.8 184.2 L 186.4 178.0 L 189.0 171.6 L 191.6 164.7 L 194.2 157.6 L 196.8 150.1 L 199.4 142.3 L 202.0 134.2 L 204.6 125.8 L 207.2 117.0 L 209.8 107.9 L 212.4 98.5 L 215.0 88.8 L 217.6 78.7 L 220.2 68.3 L 222.8 57.6 L 225.4 46.6 L 228.0 35.2 L 230.6 23.5 L 233.2 11.5 L 235.8 -0.8 L 238.4 -13.5 L 241.0 -26.5 L 243.6 -39.8 L 246.2 -53.4 L 248.8 -67.3 L 251.4 -81.6 L 254.0 -96.2 L 256.6 -111.1 L 259.2 -126.4 L 261.8 -141.9 L 264.4 -157.8 L 267.0 -174.1 L 269.6 -190.6 L 272.2 -207.5 L 274.8 -224.6 L 277.4 -242.2 L 280.0 -260.0" fill="none" stroke="blue" stroke-width="2" />
    <!-- Intercepts -->
    <circle cx="193.3" cy="160.0" r="3" fill="red" /><circle cx="77.8" cy="160.0" r="3" fill="red" /><circle cx="222.2" cy="60.0" r="3" fill="red" />
    <!-- Labels -->
    <text x="193.3" y="175.0" font-family="sans-serif" font-size="10" text-anchor="middle" dominant-baseline="hanging" fill="#333">-1</text><text x="77.8" y="175.0" font-family="sans-serif" font-size="10" text-anchor="middle" dominant-baseline="hanging" fill="#333">-5</text><text x="232.2" y="60.0" font-family="sans-serif" font-size="10" text-anchor="start" dominant-baseline="middle" fill="#333">5</text>
    <!-- Equation -->
    <text x="150" y="295" font-family="sans-serif" font-size="12" text-anchor="middle" fill="#666">y = 1x² + 6x + 5</text>
  </svg>