<svg width="300" height="300" viewBox="0 0 300 300" xmlns="http://www.w3.org/2000/svg" style="background:white; border:1px solid #eee;">
    <defs>
      <marker id="arrowhead" markerWidth="10" markerHeight="7" refX="9" refY="3.5" orient="auto">
        <polygon points="0 0, 10 3.5, 0 7" fill="#888" />
      </marker>
    </defs>
    <!-- Axes -->
    <line x1="10" y1="70.73170731707316" x2="290" y2="70.73170731707316" stroke="#888" stroke-width="1" marker-end="url(#arrowhead)" />
    <line x1="135.55555555555554" y1="290" x2="135.55555555555554" y2="10" stroke="#888" stroke-width="1" marker-end="url(#arrowhead)" />
    <!-- Graph -->
    <path d="M 20.0 -284.4 L 22.6 -264.0 L 25.2 -244.1 L 27.8 -224.6 L 30.4 -205.5 L 33.0 -186.8 L 35.6 -168.5 L 38.2 -150.6 L 40.8 -133.2 L 43.4 -116.1 L 46.0 -99.5 L 48.6 -83.2 L 51.2 -67.4 L 53.8 -52.0 L 56.4 -37.0 L 59.0 -22.4 L 61.6 -8.2 L 64.2 5.5 L 66.8 18.9 L 69.4 31.8 L 72.0 44.4 L 74.6 56.5 L 77.2 68.2 L 79.8 79.5 L 82.4 90.4 L 85.0 100.9 L 87.6 110.9 L 90.2 120.6 L 92.8 129.8 L 95.4 138.7 L 98.0 147.1 L 100.6 155.1 L 103.2 162.7 L 105.8 169.9 L 108.4 176.7 L 111.0 183.0 L 113.6 189.0 L 116.2 194.5 L 118.8 199.7 L 121.4 204.4 L 124.0 208.7 L 126.6 212.6 L 129.2 216.1 L 131.8 219.2 L 134.4 221.9 L 137.0 224.1 L 139.6 226.0 L 142.2 227.4 L 144.8 228.4 L 147.4 229.1 L 150.0 229.3 L 152.6 229.1 L 155.2 228.4 L 157.8 227.4 L 160.4 226.0 L 163.0 224.1 L 165.6 221.9 L 168.2 219.2 L 170.8 216.1 L 173.4 212.6 L 176.0 208.7 L 178.6 204.4 L 181.2 199.7 L 183.8 194.5 L 186.4 189.0 L 189.0 183.0 L 191.6 176.7 L 194.2 169.9 L 196.8 162.7 L 199.4 155.1 L 202.0 147.1 L 204.6 138.7 L 207.2 129.8 L 209.8 120.6 L 212.4 110.9 L 215.0 100.9 L 217.6 90.4 L 220.2 79.5 L 222.8 68.2 L 225.4 56.5 L 228.0 44.4 L 230.6 31.8 L 233.2 18.9 L 235.8 5.5 L 238.4 -8.2 L 241.0 -22.4 L 243.6 -37.0 L 246.2 -52.0 L 248.8 -67.4 L 251.4 -83.2 L 254.0 -99.5 L 256.6 -116.1 L 259.2 -133.2 L 261.8 -150.6 L 264.4 -168.5 L 267.0 -186.8 L 269.6 -205.5 L 272.2 -224.6 L 274.8 -244.1 L 277.4 -264.0 L 280.0 -284.4" fill="none" stroke="blue" stroke-width="2" />
    <!-- Intercepts -->
    <circle cx="222.2" cy="70.7" r="3" fill="red" /><circle cx="77.8" cy="70.7" r="3" fill="red" /><circle cx="135.6" cy="222.9" r="3" fill="red" />
    <!-- Labels -->
    <text x="222.2" y="85.7" font-family="sans-serif" font-size="10" text-anchor="middle" dominant-baseline="hanging" fill="#333">3</text><text x="77.8" y="85.7" font-family="sans-serif" font-size="10" text-anchor="middle" dominant-baseline="hanging" fill="#333">-2</text><text x="145.6" y="222.9" font-family="sans-serif" font-size="10" text-anchor="start" dominant-baseline="middle" fill="#333">-6</text>
    <!-- Equation -->
    <text x="150" y="295" font-family="sans-serif" font-size="12" text-anchor="middle" fill="#666">y = 1x² + -1x + -6</text>
  </svg>