<svg width="300" height="300" viewBox="0 0 300 300" xmlns="http://www.w3.org/2000/svg" style="background:white; border:1px solid #eee;">
    <defs>
      <marker id="arrowhead" markerWidth="10" markerHeight="7" refX="9" refY="3.5" orient="auto">
        <polygon points="0 0, 10 3.5, 0 7" fill="#888" />
      </marker>
    </defs>
    <!-- Axes -->
    <line x1="10" y1="103.19999999999999" x2="290" y2="103.19999999999999" stroke="#888" stroke-width="1" marker-end="url(#arrowhead)" />
    <line x1="168.57142857142856" y1="290" x2="168.57142857142856" y2="10" stroke="#888" stroke-width="1" marker-end="url(#arrowhead)" />
    <!-- Graph -->
    <path d="M 20.0 -312.8 L 22.6 -292.6 L 25.2 -272.8 L 27.8 -253.5 L 30.4 -234.5 L 33.0 -216.0 L 35.6 -197.8 L 38.2 -180.1 L 40.8 -162.8 L 43.4 -145.9 L 46.0 -129.3 L 48.6 -113.2 L 51.2 -97.5 L 53.8 -82.3 L 56.4 -67.4 L 59.0 -52.9 L 61.6 -38.8 L 64.2 -25.2 L 66.8 -11.9 L 69.4 0.9 L 72.0 13.3 L 74.6 25.4 L 77.2 37.0 L 79.8 48.2 L 82.4 59.0 L 85.0 69.4 L 87.6 79.4 L 90.2 89.0 L 92.8 98.1 L 95.4 106.9 L 98.0 115.3 L 100.6 123.2 L 103.2 130.8 L 105.8 137.9 L 108.4 144.6 L 111.0 150.9 L 113.6 156.8 L 116.2 162.4 L 118.8 167.4 L 121.4 172.1 L 124.0 176.4 L 126.6 180.3 L 129.2 183.8 L 131.8 186.8 L 134.4 189.5 L 137.0 191.7 L 139.6 193.5 L 142.2 195.0 L 144.8 196.0 L 147.4 196.6 L 150.0 196.8 L 152.6 196.6 L 155.2 196.0 L 157.8 195.0 L 160.4 193.5 L 163.0 191.7 L 165.6 189.5 L 168.2 186.8 L 170.8 183.8 L 173.4 180.3 L 176.0 176.4 L 178.6 172.1 L 181.2 167.4 L 183.8 162.4 L 186.4 156.8 L 189.0 150.9 L 191.6 144.6 L 194.2 137.9 L 196.8 130.8 L 199.4 123.2 L 202.0 115.3 L 204.6 106.9 L 207.2 98.1 L 209.8 89.0 L 212.4 79.4 L 215.0 69.4 L 217.6 59.0 L 220.2 48.2 L 222.8 37.0 L 225.4 25.4 L 228.0 13.3 L 230.6 0.9 L 233.2 -11.9 L 235.8 -25.2 L 238.4 -38.8 L 241.0 -52.9 L 243.6 -67.4 L 246.2 -82.3 L 248.8 -97.5 L 251.4 -113.2 L 254.0 -129.3 L 256.6 -145.9 L 259.2 -162.8 L 261.8 -180.1 L 264.4 -197.8 L 267.0 -216.0 L 269.6 -234.5 L 272.2 -253.5 L 274.8 -272.8 L 277.4 -292.6 L 280.0 -312.8" fill="none" stroke="blue" stroke-width="2" />
    <!-- Intercepts -->
    <circle cx="205.7" cy="103.2" r="3" fill="red" /><circle cx="94.3" cy="103.2" r="3" fill="red" /><circle cx="168.6" cy="186.4" r="3" fill="red" />
    <!-- Labels -->
    <text x="205.7" y="118.2" font-family="sans-serif" font-size="10" text-anchor="middle" dominant-baseline="hanging" fill="#333">1</text><text x="94.3" y="118.2" font-family="sans-serif" font-size="10" text-anchor="middle" dominant-baseline="hanging" fill="#333">-2</text><text x="178.6" y="186.4" font-family="sans-serif" font-size="10" text-anchor="start" dominant-baseline="middle" fill="#333">-2</text>
    <!-- Equation -->
    <text x="150" y="295" font-family="sans-serif" font-size="12" text-anchor="middle" fill="#666">y = 1x² + 1x + -2</text>
  </svg>