<svg width="300" height="300" viewBox="0 0 300 300" xmlns="http://www.w3.org/2000/svg" style="background:white; border:1px solid #eee;">
    <defs>
      <marker id="arrowhead" markerWidth="10" markerHeight="7" refX="9" refY="3.5" orient="auto">
        <polygon points="0 0, 10 3.5, 0 7" fill="#888" />
      </marker>
    </defs>
    <!-- Axes -->
    <line x1="10" y1="191.54639175257734" x2="290" y2="191.54639175257734" stroke="#888" stroke-width="1" marker-end="url(#arrowhead)" />
    <line x1="67.27272727272728" y1="290" x2="67.27272727272728" y2="10" stroke="#888" stroke-width="1" marker-end="url(#arrowhead)" />
    <!-- Graph -->
    <path d="M 20.0 -194.4 L 22.6 -179.2 L 25.2 -164.3 L 27.8 -149.6 L 30.4 -135.2 L 33.0 -121.0 L 35.6 -107.1 L 38.2 -93.5 L 40.8 -80.1 L 43.4 -67.0 L 46.0 -54.1 L 48.6 -41.5 L 51.2 -29.1 L 53.8 -17.0 L 56.4 -5.2 L 59.0 6.4 L 61.6 17.7 L 64.2 28.7 L 66.8 39.5 L 69.4 50.0 L 72.0 60.3 L 74.6 70.3 L 77.2 80.1 L 79.8 89.6 L 82.4 98.8 L 85.0 107.8 L 87.6 116.5 L 90.2 125.0 L 92.8 133.2 L 95.4 141.1 L 98.0 148.8 L 100.6 156.2 L 103.2 163.3 L 105.8 170.2 L 108.4 176.9 L 111.0 183.3 L 113.6 189.4 L 116.2 195.2 L 118.8 200.8 L 121.4 206.2 L 124.0 211.3 L 126.6 216.1 L 129.2 220.7 L 131.8 225.0 L 134.4 229.0 L 137.0 232.8 L 139.6 236.3 L 142.2 239.6 L 144.8 242.6 L 147.4 245.3 L 150.0 247.8 L 152.6 250.1 L 155.2 252.0 L 157.8 253.7 L 160.4 255.2 L 163.0 256.4 L 165.6 257.3 L 168.2 258.0 L 170.8 258.4 L 173.4 258.6 L 176.0 258.4 L 178.6 258.1 L 181.2 257.5 L 183.8 256.6 L 186.4 255.4 L 189.0 254.0 L 191.6 252.4 L 194.2 250.4 L 196.8 248.3 L 199.4 245.8 L 202.0 243.1 L 204.6 240.2 L 207.2 236.9 L 209.8 233.5 L 212.4 229.7 L 215.0 225.7 L 217.6 221.5 L 220.2 216.9 L 222.8 212.2 L 225.4 207.1 L 228.0 201.8 L 230.6 196.3 L 233.2 190.5 L 235.8 184.4 L 238.4 178.1 L 241.0 171.5 L 243.6 164.6 L 246.2 157.5 L 248.8 150.1 L 251.4 142.5 L 254.0 134.6 L 256.6 126.5 L 259.2 118.1 L 261.8 109.4 L 264.4 100.5 L 267.0 91.3 L 269.6 81.8 L 272.2 72.1 L 274.8 62.2 L 277.4 51.9 L 280.0 41.4" fill="none" stroke="blue" stroke-width="2" />
    <!-- Intercepts -->
    <circle cx="232.7" cy="191.5" r="3" fill="red" /><circle cx="114.5" cy="191.5" r="3" fill="red" /><circle cx="67.3" cy="41.4" r="3" fill="red" />
    <!-- Labels -->
    <text x="232.7" y="206.5" font-family="sans-serif" font-size="10" text-anchor="middle" dominant-baseline="hanging" fill="#333">7</text><text x="114.5" y="206.5" font-family="sans-serif" font-size="10" text-anchor="middle" dominant-baseline="hanging" fill="#333">2</text><text x="77.3" y="41.4" font-family="sans-serif" font-size="10" text-anchor="start" dominant-baseline="middle" fill="#333">14</text>
    <!-- Equation -->
    <text x="150" y="295" font-family="sans-serif" font-size="12" text-anchor="middle" fill="#666">y = 1x² + -9x + 14</text>
  </svg>