<svg width="300" height="300" viewBox="0 0 300 300" xmlns="http://www.w3.org/2000/svg" style="background:white; border:1px solid #eee;">
    <defs>
      <marker id="arrowhead" markerWidth="10" markerHeight="7" refX="9" refY="3.5" orient="auto">
        <polygon points="0 0, 10 3.5, 0 7" fill="#888" />
      </marker>
    </defs>
    <!-- Axes -->
    <line x1="10" y1="241" x2="290" y2="241" stroke="#888" stroke-width="1" marker-end="url(#arrowhead)" />
    <line x1="77.77777777777777" y1="290" x2="77.77777777777777" y2="10" stroke="#888" stroke-width="1" marker-end="url(#arrowhead)" />
    <!-- Graph -->
    <path d="M 20.0 -214.0 L 22.6 -200.1 L 25.2 -186.3 L 27.8 -172.8 L 30.4 -159.5 L 33.0 -146.4 L 35.6 -133.6 L 38.2 -120.9 L 40.8 -108.4 L 43.4 -96.2 L 46.0 -84.1 L 48.6 -72.3 L 51.2 -60.7 L 53.8 -49.3 L 56.4 -38.1 L 59.0 -27.1 L 61.6 -16.3 L 64.2 -5.8 L 66.8 4.6 L 69.4 14.7 L 72.0 24.7 L 74.6 34.4 L 77.2 43.9 L 79.8 53.2 L 82.4 62.3 L 85.0 71.2 L 87.6 79.9 L 90.2 88.3 L 92.8 96.6 L 95.4 104.6 L 98.0 112.4 L 100.6 120.0 L 103.2 127.5 L 105.8 134.6 L 108.4 141.6 L 111.0 148.4 L 113.6 155.0 L 116.2 161.3 L 118.8 167.5 L 121.4 173.4 L 124.0 179.1 L 126.6 184.6 L 129.2 189.9 L 131.8 195.0 L 134.4 199.9 L 137.0 204.6 L 139.6 209.0 L 142.2 213.3 L 144.8 217.3 L 147.4 221.1 L 150.0 224.8 L 152.6 228.2 L 155.2 231.3 L 157.8 234.3 L 160.4 237.1 L 163.0 239.7 L 165.6 242.0 L 168.2 244.2 L 170.8 246.1 L 173.4 247.8 L 176.0 249.3 L 178.6 250.6 L 181.2 251.7 L 183.8 252.6 L 186.4 253.3 L 189.0 253.7 L 191.6 254.0 L 194.2 254.0 L 196.8 253.8 L 199.4 253.4 L 202.0 252.8 L 204.6 252.0 L 207.2 251.0 L 209.8 249.8 L 212.4 248.3 L 215.0 246.7 L 217.6 244.8 L 220.2 242.8 L 222.8 240.5 L 225.4 238.0 L 228.0 235.3 L 230.6 232.4 L 233.2 229.2 L 235.8 225.9 L 238.4 222.4 L 241.0 218.6 L 243.6 214.6 L 246.2 210.5 L 248.8 206.1 L 251.4 201.5 L 254.0 196.7 L 256.6 191.7 L 259.2 186.4 L 261.8 181.0 L 264.4 175.3 L 267.0 169.5 L 269.6 163.4 L 272.2 157.1 L 274.8 150.6 L 277.4 143.9 L 280.0 137.0" fill="none" stroke="blue" stroke-width="2" />
    <!-- Intercepts -->
    <circle cx="222.2" cy="241.0" r="3" fill="red" /><circle cx="164.4" cy="241.0" r="3" fill="red" /><circle cx="77.8" cy="46.0" r="3" fill="red" />
    <!-- Labels -->
    <text x="222.2" y="256.0" font-family="sans-serif" font-size="10" text-anchor="middle" dominant-baseline="hanging" fill="#333">5</text><text x="164.4" y="256.0" font-family="sans-serif" font-size="10" text-anchor="middle" dominant-baseline="hanging" fill="#333">3</text><text x="87.8" y="46.0" font-family="sans-serif" font-size="10" text-anchor="start" dominant-baseline="middle" fill="#333">15</text>
    <!-- Equation -->
    <text x="150" y="295" font-family="sans-serif" font-size="12" text-anchor="middle" fill="#666">y = 1x² + -8x + 15</text>
  </svg>