<svg width="300" height="300" viewBox="0 0 300 300" xmlns="http://www.w3.org/2000/svg" style="background:white; border:1px solid #eee;">
    <defs>
      <marker id="arrowhead" markerWidth="10" markerHeight="7" refX="9" refY="3.5" orient="auto">
        <polygon points="0 0, 10 3.5, 0 7" fill="#888" />
      </marker>
    </defs>
    <!-- Axes -->
    <line x1="10" y1="262.91970802919707" x2="290" y2="262.91970802919707" stroke="#888" stroke-width="1" marker-end="url(#arrowhead)" />
    <line x1="72" y1="290" x2="72" y2="10" stroke="#888" stroke-width="1" marker-end="url(#arrowhead)" />
    <!-- Graph -->
    <path d="M 20.0 -162.2 L 22.6 -150.9 L 25.2 -139.7 L 27.8 -128.7 L 30.4 -117.9 L 33.0 -107.2 L 35.6 -96.6 L 38.2 -86.2 L 40.8 -76.0 L 43.4 -65.9 L 46.0 -55.9 L 48.6 -46.1 L 51.2 -36.5 L 53.8 -27.0 L 56.4 -17.7 L 59.0 -8.5 L 61.6 0.6 L 64.2 9.4 L 66.8 18.2 L 69.4 26.8 L 72.0 35.2 L 74.6 43.5 L 77.2 51.6 L 79.8 59.6 L 82.4 67.4 L 85.0 75.0 L 87.6 82.6 L 90.2 89.9 L 92.8 97.1 L 95.4 104.2 L 98.0 111.1 L 100.6 117.9 L 103.2 124.5 L 105.8 130.9 L 108.4 137.2 L 111.0 143.4 L 113.6 149.4 L 116.2 155.2 L 118.8 160.9 L 121.4 166.4 L 124.0 171.8 L 126.6 177.1 L 129.2 182.1 L 131.8 187.1 L 134.4 191.9 L 137.0 196.5 L 139.6 201.0 L 142.2 205.3 L 144.8 209.5 L 147.4 213.5 L 150.0 217.4 L 152.6 221.1 L 155.2 224.7 L 157.8 228.1 L 160.4 231.3 L 163.0 234.5 L 165.6 237.4 L 168.2 240.2 L 170.8 242.9 L 173.4 245.4 L 176.0 247.7 L 178.6 249.9 L 181.2 252.0 L 183.8 253.9 L 186.4 255.6 L 189.0 257.2 L 191.6 258.7 L 194.2 260.0 L 196.8 261.1 L 199.4 262.1 L 202.0 262.9 L 204.6 263.6 L 207.2 264.1 L 209.8 264.5 L 212.4 264.7 L 215.0 264.8 L 217.6 264.7 L 220.2 264.5 L 222.8 264.1 L 225.4 263.6 L 228.0 262.9 L 230.6 262.1 L 233.2 261.1 L 235.8 260.0 L 238.4 258.7 L 241.0 257.2 L 243.6 255.6 L 246.2 253.9 L 248.8 252.0 L 251.4 249.9 L 254.0 247.7 L 256.6 245.4 L 259.2 242.9 L 261.8 240.2 L 264.4 237.4 L 267.0 234.5 L 269.6 231.3 L 272.2 228.1 L 274.8 224.7 L 277.4 221.1 L 280.0 217.4" fill="none" stroke="blue" stroke-width="2" />
    <!-- Intercepts -->
    <circle cx="228.0" cy="262.9" r="3" fill="red" /><circle cx="202.0" cy="262.9" r="3" fill="red" /><circle cx="72.0" cy="35.2" r="3" fill="red" />
    <!-- Labels -->
    <text x="228.0" y="277.9" font-family="sans-serif" font-size="10" text-anchor="middle" dominant-baseline="hanging" fill="#333">6</text><text x="202.0" y="277.9" font-family="sans-serif" font-size="10" text-anchor="middle" dominant-baseline="hanging" fill="#333">5</text><text x="82.0" y="35.2" font-family="sans-serif" font-size="10" text-anchor="start" dominant-baseline="middle" fill="#333">30</text>
    <!-- Equation -->
    <text x="150" y="295" font-family="sans-serif" font-size="12" text-anchor="middle" fill="#666">y = 1x² + -11x + 30</text>
  </svg>