<svg width="300" height="300" viewBox="0 0 300 300" xmlns="http://www.w3.org/2000/svg" style="background:white; border:1px solid #eee;">
    <defs>
      <marker id="arrowhead" markerWidth="10" markerHeight="7" refX="9" refY="3.5" orient="auto">
        <polygon points="0 0, 10 3.5, 0 7" fill="#888" />
      </marker>
    </defs>
    <!-- Axes -->
    <line x1="10" y1="25" x2="290" y2="25" stroke="#888" stroke-width="1" marker-end="url(#arrowhead)" />
    <line x1="150" y1="290" x2="150" y2="10" stroke="#888" stroke-width="1" marker-end="url(#arrowhead)" />
    <!-- Graph -->
    <path d="M 20.0 -85.0 L 22.6 -70.7 L 25.2 -56.8 L 27.8 -43.1 L 30.4 -29.7 L 33.0 -16.6 L 35.6 -3.8 L 38.2 8.7 L 40.8 21.0 L 43.4 32.9 L 46.0 44.6 L 48.6 56.0 L 51.2 67.1 L 53.8 77.9 L 56.4 88.4 L 59.0 98.6 L 61.6 108.5 L 64.2 118.2 L 66.8 127.5 L 69.4 136.6 L 72.0 145.4 L 74.6 153.9 L 77.2 162.1 L 79.8 170.0 L 82.4 177.7 L 85.0 185.0 L 87.6 192.1 L 90.2 198.8 L 92.8 205.3 L 95.4 211.5 L 98.0 217.4 L 100.6 223.0 L 103.2 228.3 L 105.8 233.4 L 108.4 238.1 L 111.0 242.6 L 113.6 246.8 L 116.2 250.7 L 118.8 254.3 L 121.4 257.6 L 124.0 260.6 L 126.6 263.3 L 129.2 265.8 L 131.8 267.9 L 134.4 269.8 L 137.0 271.4 L 139.6 272.7 L 142.2 273.7 L 144.8 274.4 L 147.4 274.9 L 150.0 275.0 L 152.6 274.9 L 155.2 274.4 L 157.8 273.7 L 160.4 272.7 L 163.0 271.4 L 165.6 269.8 L 168.2 267.9 L 170.8 265.8 L 173.4 263.3 L 176.0 260.6 L 178.6 257.6 L 181.2 254.3 L 183.8 250.7 L 186.4 246.8 L 189.0 242.6 L 191.6 238.1 L 194.2 233.4 L 196.8 228.3 L 199.4 223.0 L 202.0 217.4 L 204.6 211.5 L 207.2 205.3 L 209.8 198.8 L 212.4 192.1 L 215.0 185.0 L 217.6 177.7 L 220.2 170.0 L 222.8 162.1 L 225.4 153.9 L 228.0 145.4 L 230.6 136.6 L 233.2 127.5 L 235.8 118.2 L 238.4 108.5 L 241.0 98.6 L 243.6 88.4 L 246.2 77.9 L 248.8 67.1 L 251.4 56.0 L 254.0 44.6 L 256.6 32.9 L 259.2 21.0 L 261.8 8.7 L 264.4 -3.8 L 267.0 -16.6 L 269.6 -29.7 L 272.2 -43.1 L 274.8 -56.8 L 277.4 -70.7 L 280.0 -85.0" fill="none" stroke="blue" stroke-width="2" />
    <!-- Intercepts -->
    <circle cx="258.3" cy="25.0" r="3" fill="red" /><circle cx="41.7" cy="25.0" r="3" fill="red" /><circle cx="150.0" cy="275.0" r="3" fill="red" />
    <!-- Labels -->
    <text x="258.3" y="40.0" font-family="sans-serif" font-size="10" text-anchor="middle" dominant-baseline="hanging" fill="#333">10</text><text x="41.7" y="40.0" font-family="sans-serif" font-size="10" text-anchor="middle" dominant-baseline="hanging" fill="#333">-10</text><text x="160.0" y="275.0" font-family="sans-serif" font-size="10" text-anchor="start" dominant-baseline="middle" fill="#333">-100</text>
    <!-- Equation -->
    <text x="150" y="295" font-family="sans-serif" font-size="12" text-anchor="middle" fill="#666">y = 1x² + 0x + -100</text>
  </svg>