<svg width="300" height="300" viewBox="0 0 300 300" xmlns="http://www.w3.org/2000/svg" style="background:white; border:1px solid #eee;">
    <defs>
      <marker id="arrowhead" markerWidth="10" markerHeight="7" refX="9" refY="3.5" orient="auto">
        <polygon points="0 0, 10 3.5, 0 7" fill="#888" />
      </marker>
    </defs>
    <!-- Axes -->
    <line x1="10" y1="182.5" x2="290" y2="182.5" stroke="#888" stroke-width="1" marker-end="url(#arrowhead)" />
    <line x1="205.71428571428572" y1="290" x2="205.71428571428572" y2="10" stroke="#888" stroke-width="1" marker-end="url(#arrowhead)" />
    <!-- Graph -->
    <path d="M 20.0 -77.5 L 22.6 -64.0 L 25.2 -50.8 L 27.8 -38.0 L 30.4 -25.4 L 33.0 -13.2 L 35.6 -1.3 L 38.2 10.2 L 40.8 21.5 L 43.4 32.5 L 46.0 43.1 L 48.6 53.4 L 51.2 63.4 L 53.8 73.0 L 56.4 82.4 L 59.0 91.4 L 61.6 100.1 L 64.2 108.5 L 66.8 116.6 L 69.4 124.4 L 72.0 131.8 L 74.6 138.9 L 77.2 145.7 L 79.8 152.2 L 82.4 158.4 L 85.0 164.2 L 87.6 169.7 L 90.2 175.0 L 92.8 179.8 L 95.4 184.4 L 98.0 188.7 L 100.6 192.6 L 103.2 196.2 L 105.8 199.5 L 108.4 202.5 L 111.0 205.2 L 113.6 207.5 L 116.2 209.5 L 118.8 211.2 L 121.4 212.6 L 124.0 213.7 L 126.6 214.5 L 129.2 214.9 L 131.8 215.0 L 134.4 214.8 L 137.0 214.3 L 139.6 213.4 L 142.2 212.3 L 144.8 210.8 L 147.4 209.0 L 150.0 206.9 L 152.6 204.4 L 155.2 201.7 L 157.8 198.6 L 160.4 195.2 L 163.0 191.5 L 165.6 187.5 L 168.2 183.1 L 170.8 178.5 L 173.4 173.5 L 176.0 168.2 L 178.6 162.6 L 181.2 156.6 L 183.8 150.4 L 186.4 143.8 L 189.0 136.9 L 191.6 129.7 L 194.2 122.2 L 196.8 114.3 L 199.4 106.2 L 202.0 97.7 L 204.6 88.9 L 207.2 79.7 L 209.8 70.3 L 212.4 60.5 L 215.0 50.5 L 217.6 40.1 L 220.2 29.4 L 222.8 18.3 L 225.4 7.0 L 228.0 -4.7 L 230.6 -16.7 L 233.2 -29.0 L 235.8 -41.6 L 238.4 -54.6 L 241.0 -67.8 L 243.6 -81.4 L 246.2 -95.3 L 248.8 -109.5 L 251.4 -124.1 L 254.0 -138.9 L 256.6 -154.1 L 259.2 -169.6 L 261.8 -185.4 L 264.4 -201.5 L 267.0 -218.0 L 269.6 -234.7 L 272.2 -251.8 L 274.8 -269.2 L 277.4 -287.0 L 280.0 -305.0" fill="none" stroke="blue" stroke-width="2" />
    <!-- Intercepts -->
    <circle cx="168.6" cy="182.5" r="3" fill="red" /><circle cx="94.3" cy="182.5" r="3" fill="red" /><circle cx="205.7" cy="85.0" r="3" fill="red" />
    <!-- Labels -->
    <text x="168.6" y="197.5" font-family="sans-serif" font-size="10" text-anchor="middle" dominant-baseline="hanging" fill="#333">-1</text><text x="94.3" y="197.5" font-family="sans-serif" font-size="10" text-anchor="middle" dominant-baseline="hanging" fill="#333">-3</text><text x="215.7" y="85.0" font-family="sans-serif" font-size="10" text-anchor="start" dominant-baseline="middle" fill="#333">3</text>
    <!-- Equation -->
    <text x="150" y="295" font-family="sans-serif" font-size="12" text-anchor="middle" fill="#666">y = 1x² + 4x + 3</text>
  </svg>