<svg width="300" height="300" viewBox="0 0 300 300" xmlns="http://www.w3.org/2000/svg" style="background:white; border:1px solid #eee;">
    <defs>
      <marker id="arrowhead" markerWidth="10" markerHeight="7" refX="9" refY="3.5" orient="auto">
        <polygon points="0 0, 10 3.5, 0 7" fill="#888" />
      </marker>
    </defs>
    <!-- Axes -->
    <line x1="10" y1="85" x2="290" y2="85" stroke="#888" stroke-width="1" marker-end="url(#arrowhead)" />
    <line x1="150" y1="290" x2="150" y2="10" stroke="#888" stroke-width="1" marker-end="url(#arrowhead)" />
    <!-- Graph -->
    <path d="M 20.0 -305.0 L 22.6 -284.4 L 25.2 -264.2 L 27.8 -244.5 L 30.4 -225.1 L 33.0 -206.2 L 35.6 -187.7 L 38.2 -169.6 L 40.8 -151.9 L 43.4 -134.6 L 46.0 -117.8 L 48.6 -101.4 L 51.2 -85.4 L 53.8 -69.8 L 56.4 -54.6 L 59.0 -39.8 L 61.6 -25.4 L 64.2 -11.5 L 66.8 2.0 L 69.4 15.1 L 72.0 27.8 L 74.6 40.1 L 77.2 51.9 L 79.8 63.4 L 82.4 74.4 L 85.0 85.0 L 87.6 95.2 L 90.2 105.0 L 92.8 114.3 L 95.4 123.3 L 98.0 131.8 L 100.6 139.9 L 103.2 147.6 L 105.8 154.9 L 108.4 161.8 L 111.0 168.2 L 113.6 174.2 L 116.2 179.8 L 118.8 185.0 L 121.4 189.8 L 124.0 194.2 L 126.6 198.2 L 129.2 201.7 L 131.8 204.8 L 134.4 207.5 L 137.0 209.8 L 139.6 211.7 L 142.2 213.1 L 144.8 214.2 L 147.4 214.8 L 150.0 215.0 L 152.6 214.8 L 155.2 214.2 L 157.8 213.1 L 160.4 211.7 L 163.0 209.8 L 165.6 207.5 L 168.2 204.8 L 170.8 201.7 L 173.4 198.2 L 176.0 194.2 L 178.6 189.8 L 181.2 185.0 L 183.8 179.8 L 186.4 174.2 L 189.0 168.2 L 191.6 161.8 L 194.2 154.9 L 196.8 147.6 L 199.4 139.9 L 202.0 131.8 L 204.6 123.3 L 207.2 114.3 L 209.8 105.0 L 212.4 95.2 L 215.0 85.0 L 217.6 74.4 L 220.2 63.4 L 222.8 51.9 L 225.4 40.1 L 228.0 27.8 L 230.6 15.1 L 233.2 2.0 L 235.8 -11.5 L 238.4 -25.4 L 241.0 -39.8 L 243.6 -54.6 L 246.2 -69.8 L 248.8 -85.4 L 251.4 -101.4 L 254.0 -117.8 L 256.6 -134.6 L 259.2 -151.9 L 261.8 -169.6 L 264.4 -187.7 L 267.0 -206.2 L 269.6 -225.1 L 272.2 -244.5 L 274.8 -264.2 L 277.4 -284.4 L 280.0 -305.0" fill="none" stroke="blue" stroke-width="2" />
    <!-- Intercepts -->
    <circle cx="215.0" cy="85.0" r="3" fill="red" /><circle cx="85.0" cy="85.0" r="3" fill="red" /><circle cx="150.0" cy="215.0" r="3" fill="red" />
    <!-- Labels -->
    <text x="215.0" y="100.0" font-family="sans-serif" font-size="10" text-anchor="middle" dominant-baseline="hanging" fill="#333">2</text><text x="85.0" y="100.0" font-family="sans-serif" font-size="10" text-anchor="middle" dominant-baseline="hanging" fill="#333">-2</text><text x="160.0" y="215.0" font-family="sans-serif" font-size="10" text-anchor="start" dominant-baseline="middle" fill="#333">-4</text>
    <!-- Equation -->
    <text x="150" y="295" font-family="sans-serif" font-size="12" text-anchor="middle" fill="#666">y = 1x² + 0x + -4</text>
  </svg>