<svg width="300" height="300" viewBox="0 0 300 300" xmlns="http://www.w3.org/2000/svg" style="background:white; border:1px solid #eee;">
    <defs>
      <marker id="arrowhead" markerWidth="10" markerHeight="7" refX="9" refY="3.5" orient="auto">
        <polygon points="0 0, 10 3.5, 0 7" fill="#888" />
      </marker>
    </defs>
    <!-- Axes -->
    <line x1="10" y1="220" x2="290" y2="220" stroke="#888" stroke-width="1" marker-end="url(#arrowhead)" />
    <line x1="215" y1="290" x2="215" y2="10" stroke="#888" stroke-width="1" marker-end="url(#arrowhead)" />
    <!-- Graph -->
    <path d="M 20.0 60.0 L 22.6 69.5 L 25.2 78.7 L 27.8 87.6 L 30.4 96.4 L 33.0 104.8 L 35.6 113.0 L 38.2 120.9 L 40.8 128.6 L 43.4 136.0 L 46.0 143.2 L 48.6 150.1 L 51.2 156.8 L 53.8 163.2 L 56.4 169.3 L 59.0 175.2 L 61.6 180.8 L 64.2 186.2 L 66.8 191.3 L 69.4 196.2 L 72.0 200.8 L 74.6 205.2 L 77.2 209.2 L 79.8 213.1 L 82.4 216.7 L 85.0 220.0 L 87.6 223.1 L 90.2 225.9 L 92.8 228.4 L 95.4 230.8 L 98.0 232.8 L 100.6 234.6 L 103.2 236.1 L 105.8 237.4 L 108.4 238.4 L 111.0 239.2 L 113.6 239.7 L 116.2 240.0 L 118.8 240.0 L 121.4 239.7 L 124.0 239.2 L 126.6 238.4 L 129.2 237.4 L 131.8 236.1 L 134.4 234.6 L 137.0 232.8 L 139.6 230.8 L 142.2 228.4 L 144.8 225.9 L 147.4 223.1 L 150.0 220.0 L 152.6 216.7 L 155.2 213.1 L 157.8 209.2 L 160.4 205.2 L 163.0 200.8 L 165.6 196.2 L 168.2 191.3 L 170.8 186.2 L 173.4 180.8 L 176.0 175.2 L 178.6 169.3 L 181.2 163.2 L 183.8 156.8 L 186.4 150.1 L 189.0 143.2 L 191.6 136.0 L 194.2 128.6 L 196.8 120.9 L 199.4 113.0 L 202.0 104.8 L 204.6 96.4 L 207.2 87.6 L 209.8 78.7 L 212.4 69.5 L 215.0 60.0 L 217.6 50.3 L 220.2 40.3 L 222.8 30.0 L 225.4 19.6 L 228.0 8.8 L 230.6 -2.2 L 233.2 -13.5 L 235.8 -25.0 L 238.4 -36.8 L 241.0 -48.8 L 243.6 -61.1 L 246.2 -73.6 L 248.8 -86.4 L 251.4 -99.5 L 254.0 -112.8 L 256.6 -126.4 L 259.2 -140.2 L 261.8 -154.3 L 264.4 -168.6 L 267.0 -183.2 L 269.6 -198.0 L 272.2 -213.2 L 274.8 -228.5 L 277.4 -244.1 L 280.0 -260.0" fill="none" stroke="blue" stroke-width="2" />
    <!-- Intercepts -->
    <circle cx="150.0" cy="220.0" r="3" fill="red" /><circle cx="85.0" cy="220.0" r="3" fill="red" /><circle cx="215.0" cy="60.0" r="3" fill="red" />
    <!-- Labels -->
    <text x="150.0" y="235.0" font-family="sans-serif" font-size="10" text-anchor="middle" dominant-baseline="hanging" fill="#333">-2</text><text x="85.0" y="235.0" font-family="sans-serif" font-size="10" text-anchor="middle" dominant-baseline="hanging" fill="#333">-4</text><text x="225.0" y="60.0" font-family="sans-serif" font-size="10" text-anchor="start" dominant-baseline="middle" fill="#333">8</text>
    <!-- Equation -->
    <text x="150" y="295" font-family="sans-serif" font-size="12" text-anchor="middle" fill="#666">y = 1x² + 6x + 8</text>
  </svg>