<svg width="300" height="300" viewBox="0 0 300 300" xmlns="http://www.w3.org/2000/svg" style="background:white; border:1px solid #eee;">
    <defs>
      <marker id="arrowhead" markerWidth="10" markerHeight="7" refX="9" refY="3.5" orient="auto">
        <polygon points="0 0, 10 3.5, 0 7" fill="#888" />
      </marker>
    </defs>
    <!-- Axes -->
    <line x1="10" y1="190.95890410958904" x2="290" y2="190.95890410958904" stroke="#888" stroke-width="1" marker-end="url(#arrowhead)" />
    <line x1="124" y1="290" x2="124" y2="10" stroke="#888" stroke-width="1" marker-end="url(#arrowhead)" />
    <!-- Graph -->
    <path d="M 20.0 -834.8 L 22.6 -798.8 L 25.2 -763.4 L 27.8 -728.7 L 30.4 -694.6 L 33.0 -661.2 L 35.6 -628.4 L 38.2 -596.2 L 40.8 -564.7 L 43.4 -533.8 L 46.0 -503.6 L 48.6 -474.0 L 51.2 -445.0 L 53.8 -416.7 L 56.4 -389.0 L 59.0 -362.0 L 61.6 -335.6 L 64.2 -309.8 L 66.8 -284.7 L 69.4 -260.3 L 72.0 -236.4 L 74.6 -213.3 L 77.2 -190.7 L 79.8 -168.8 L 82.4 -147.5 L 85.0 -126.9 L 87.6 -106.9 L 90.2 -87.6 L 92.8 -68.9 L 95.4 -50.8 L 98.0 -33.4 L 100.6 -16.6 L 103.2 -0.5 L 105.8 15.0 L 108.4 29.8 L 111.0 44.0 L 113.6 57.6 L 116.2 70.5 L 118.8 82.8 L 121.4 94.5 L 124.0 105.5 L 126.6 115.8 L 129.2 125.6 L 131.8 134.6 L 134.4 143.1 L 137.0 150.9 L 139.6 158.0 L 142.2 164.6 L 144.8 170.4 L 147.4 175.7 L 150.0 180.3 L 152.6 184.2 L 155.2 187.5 L 157.8 190.2 L 160.4 192.2 L 163.0 193.6 L 165.6 194.4 L 168.2 194.5 L 170.8 194.0 L 173.4 192.8 L 176.0 191.0 L 178.6 188.5 L 181.2 185.4 L 183.8 181.7 L 186.4 177.3 L 189.0 172.3 L 191.6 166.6 L 194.2 160.3 L 196.8 153.3 L 199.4 145.8 L 202.0 137.5 L 204.6 128.7 L 207.2 119.2 L 209.8 109.0 L 212.4 98.2 L 215.0 86.8 L 217.6 74.7 L 220.2 62.0 L 222.8 48.6 L 225.4 34.6 L 228.0 20.0 L 230.6 4.7 L 233.2 -11.2 L 235.8 -27.8 L 238.4 -45.0 L 241.0 -62.8 L 243.6 -81.3 L 246.2 -100.4 L 248.8 -120.2 L 251.4 -140.6 L 254.0 -161.6 L 256.6 -183.3 L 259.2 -205.7 L 261.8 -228.6 L 264.4 -252.3 L 267.0 -276.5 L 269.6 -301.4 L 272.2 -326.9 L 274.8 -353.1 L 277.4 -379.9 L 280.0 -407.4" fill="none" stroke="blue" stroke-width="2" />
    <!-- Intercepts -->
    <circle cx="176.0" cy="191.0" r="3" fill="red" /><circle cx="158.7" cy="191.0" r="3" fill="red" /><circle cx="124.0" cy="105.5" r="3" fill="red" />
    <!-- Labels -->
    <text x="176.0" y="206.0" font-family="sans-serif" font-size="10" text-anchor="middle" dominant-baseline="hanging" fill="#333">1</text><text x="158.7" y="206.0" font-family="sans-serif" font-size="10" text-anchor="middle" dominant-baseline="hanging" fill="#333">0.7</text><text x="134.0" y="105.5" font-family="sans-serif" font-size="10" text-anchor="start" dominant-baseline="middle" fill="#333">2</text>
    <!-- Equation -->
    <text x="150" y="295" font-family="sans-serif" font-size="12" text-anchor="middle" fill="#666">y = 3x² + -5x + 2</text>
  </svg>