<svg width="300" height="300" viewBox="0 0 300 300" xmlns="http://www.w3.org/2000/svg" style="background:white; border:1px solid #eee;">
    <defs>
      <marker id="arrowhead" markerWidth="10" markerHeight="7" refX="9" refY="3.5" orient="auto">
        <polygon points="0 0, 10 3.5, 0 7" fill="#888" />
      </marker>
    </defs>
    <!-- Axes -->
    <line x1="10" y1="212" x2="290" y2="212" stroke="#888" stroke-width="1" marker-end="url(#arrowhead)" />
    <line x1="222.22222222222223" y1="290" x2="222.22222222222223" y2="10" stroke="#888" stroke-width="1" marker-end="url(#arrowhead)" />
    <!-- Graph -->
    <path d="M 20.0 52.0 L 22.6 62.0 L 25.2 71.6 L 27.8 81.1 L 30.4 90.2 L 33.0 99.2 L 35.6 107.8 L 38.2 116.2 L 40.8 124.3 L 43.4 132.2 L 46.0 139.8 L 48.6 147.2 L 51.2 154.3 L 53.8 161.1 L 56.4 167.7 L 59.0 174.0 L 61.6 180.1 L 64.2 185.9 L 66.8 191.4 L 69.4 196.7 L 72.0 201.8 L 74.6 206.5 L 77.2 211.0 L 79.8 215.3 L 82.4 219.3 L 85.0 223.0 L 87.6 226.5 L 90.2 229.7 L 92.8 232.6 L 95.4 235.3 L 98.0 237.8 L 100.6 239.9 L 103.2 241.8 L 105.8 243.5 L 108.4 244.9 L 111.0 246.0 L 113.6 246.9 L 116.2 247.5 L 118.8 247.9 L 121.4 248.0 L 124.0 247.8 L 126.6 247.4 L 129.2 246.7 L 131.8 245.8 L 134.4 244.6 L 137.0 243.2 L 139.6 241.4 L 142.2 239.5 L 144.8 237.2 L 147.4 234.8 L 150.0 232.0 L 152.6 229.0 L 155.2 225.7 L 157.8 222.2 L 160.4 218.4 L 163.0 214.4 L 165.6 210.1 L 168.2 205.5 L 170.8 200.7 L 173.4 195.6 L 176.0 190.2 L 178.6 184.6 L 181.2 178.8 L 183.8 172.7 L 186.4 166.3 L 189.0 159.6 L 191.6 152.7 L 194.2 145.6 L 196.8 138.2 L 199.4 130.5 L 202.0 122.6 L 204.6 114.4 L 207.2 105.9 L 209.8 97.2 L 212.4 88.2 L 215.0 79.0 L 217.6 69.5 L 220.2 59.8 L 222.8 49.8 L 225.4 39.5 L 228.0 29.0 L 230.6 18.2 L 233.2 7.1 L 235.8 -4.2 L 238.4 -15.7 L 241.0 -27.6 L 243.6 -39.6 L 246.2 -52.0 L 248.8 -64.6 L 251.4 -77.4 L 254.0 -90.6 L 256.6 -103.9 L 259.2 -117.6 L 261.8 -131.5 L 264.4 -145.6 L 267.0 -160.0 L 269.6 -174.7 L 272.2 -189.6 L 274.8 -204.8 L 277.4 -220.3 L 280.0 -236.0" fill="none" stroke="blue" stroke-width="2" />
    <!-- Intercepts -->
    <circle cx="164.4" cy="212.0" r="3" fill="red" /><circle cx="77.8" cy="212.0" r="3" fill="red" /><circle cx="222.2" cy="52.0" r="3" fill="red" />
    <!-- Labels -->
    <text x="164.4" y="227.0" font-family="sans-serif" font-size="10" text-anchor="middle" dominant-baseline="hanging" fill="#333">-2</text><text x="77.8" y="227.0" font-family="sans-serif" font-size="10" text-anchor="middle" dominant-baseline="hanging" fill="#333">-5</text><text x="232.2" y="52.0" font-family="sans-serif" font-size="10" text-anchor="start" dominant-baseline="middle" fill="#333">10</text>
    <!-- Equation -->
    <text x="150" y="295" font-family="sans-serif" font-size="12" text-anchor="middle" fill="#666">y = 1x² + 7x + 10</text>
  </svg>