<svg width="300" height="300" viewBox="0 0 300 300" xmlns="http://www.w3.org/2000/svg" style="background:white; border:1px solid #eee;">
    <defs>
      <marker id="arrowhead" markerWidth="10" markerHeight="7" refX="9" refY="3.5" orient="auto">
        <polygon points="0 0, 10 3.5, 0 7" fill="#888" />
      </marker>
    </defs>
    <!-- Axes -->
    <line x1="10" y1="262.0689655172414" x2="290" y2="262.0689655172414" stroke="#888" stroke-width="1" marker-end="url(#arrowhead)" />
    <line x1="222.22222222222223" y1="290" x2="222.22222222222223" y2="10" stroke="#888" stroke-width="1" marker-end="url(#arrowhead)" />
    <!-- Graph -->
    <path d="M 20.0 226.2 L 22.6 229.4 L 25.2 232.4 L 27.8 235.2 L 30.4 238.0 L 33.0 240.5 L 35.6 243.0 L 38.2 245.2 L 40.8 247.4 L 43.4 249.4 L 46.0 251.2 L 48.6 252.9 L 51.2 254.5 L 53.8 255.9 L 56.4 257.2 L 59.0 258.3 L 61.6 259.3 L 64.2 260.1 L 66.8 260.8 L 69.4 261.3 L 72.0 261.7 L 74.6 262.0 L 77.2 262.1 L 79.8 262.0 L 82.4 261.8 L 85.0 261.5 L 87.6 261.0 L 90.2 260.4 L 92.8 259.6 L 95.4 258.7 L 98.0 257.7 L 100.6 256.5 L 103.2 255.1 L 105.8 253.6 L 108.4 252.0 L 111.0 250.2 L 113.6 248.3 L 116.2 246.2 L 118.8 244.0 L 121.4 241.6 L 124.0 239.1 L 126.6 236.5 L 129.2 233.7 L 131.8 230.7 L 134.4 227.6 L 137.0 224.4 L 139.6 221.0 L 142.2 217.5 L 144.8 213.8 L 147.4 210.0 L 150.0 206.0 L 152.6 201.9 L 155.2 197.7 L 157.8 193.3 L 160.4 188.7 L 163.0 184.0 L 165.6 179.2 L 168.2 174.2 L 170.8 169.1 L 173.4 163.8 L 176.0 158.4 L 178.6 152.9 L 181.2 147.2 L 183.8 141.3 L 186.4 135.3 L 189.0 129.2 L 191.6 122.9 L 194.2 116.5 L 196.8 109.9 L 199.4 103.2 L 202.0 96.3 L 204.6 89.3 L 207.2 82.1 L 209.8 74.8 L 212.4 67.4 L 215.0 59.8 L 217.6 52.0 L 220.2 44.2 L 222.8 36.1 L 225.4 28.0 L 228.0 19.6 L 230.6 11.2 L 233.2 2.6 L 235.8 -6.2 L 238.4 -15.1 L 241.0 -24.1 L 243.6 -33.3 L 246.2 -42.7 L 248.8 -52.1 L 251.4 -61.8 L 254.0 -71.5 L 256.6 -81.5 L 259.2 -91.5 L 261.8 -101.7 L 264.4 -112.1 L 267.0 -122.6 L 269.6 -133.2 L 272.2 -144.0 L 274.8 -154.9 L 277.4 -166.0 L 280.0 -177.2" fill="none" stroke="blue" stroke-width="2" />
    <!-- Intercepts -->
    <circle cx="77.8" cy="262.1" r="3" fill="red" /><circle cx="77.8" cy="262.1" r="3" fill="red" /><circle cx="222.2" cy="37.9" r="3" fill="red" />
    <!-- Labels -->
    <text x="77.8" y="277.1" font-family="sans-serif" font-size="10" text-anchor="middle" dominant-baseline="hanging" fill="#333">-5</text><text x="77.8" y="277.1" font-family="sans-serif" font-size="10" text-anchor="middle" dominant-baseline="hanging" fill="#333">-5</text><text x="232.2" y="37.9" font-family="sans-serif" font-size="10" text-anchor="start" dominant-baseline="middle" fill="#333">25</text>
    <!-- Equation -->
    <text x="150" y="295" font-family="sans-serif" font-size="12" text-anchor="middle" fill="#666">y = 1x² + 10x + 25</text>
  </svg>