<svg width="300" height="300" viewBox="0 0 300 300" xmlns="http://www.w3.org/2000/svg" style="background:white; border:1px solid #eee;">
    <defs>
      <marker id="arrowhead" markerWidth="10" markerHeight="7" refX="9" refY="3.5" orient="auto">
        <polygon points="0 0, 10 3.5, 0 7" fill="#888" />
      </marker>
    </defs>
    <!-- Axes -->
    <line x1="10" y1="52" x2="290" y2="52" stroke="#888" stroke-width="1" marker-end="url(#arrowhead)" />
    <line x1="138.1818181818182" y1="290" x2="138.1818181818182" y2="10" stroke="#888" stroke-width="1" marker-end="url(#arrowhead)" />
    <!-- Graph -->
    <path d="M 20.0 -236.0 L 22.6 -216.8 L 25.2 -198.1 L 27.8 -179.7 L 30.4 -161.7 L 33.0 -144.0 L 35.6 -126.8 L 38.2 -110.0 L 40.8 -93.5 L 43.4 -77.4 L 46.0 -61.8 L 48.6 -46.5 L 51.2 -31.6 L 53.8 -17.0 L 56.4 -2.9 L 59.0 10.8 L 61.6 24.2 L 64.2 37.2 L 66.8 49.8 L 69.4 62.0 L 72.0 73.8 L 74.6 85.2 L 77.2 96.2 L 79.8 106.9 L 82.4 117.1 L 85.0 127.0 L 87.6 136.5 L 90.2 145.6 L 92.8 154.3 L 95.4 162.6 L 98.0 170.6 L 100.6 178.1 L 103.2 185.3 L 105.8 192.0 L 108.4 198.4 L 111.0 204.4 L 113.6 210.1 L 116.2 215.3 L 118.8 220.1 L 121.4 224.6 L 124.0 228.6 L 126.6 232.3 L 129.2 235.6 L 131.8 238.5 L 134.4 241.0 L 137.0 243.2 L 139.6 244.9 L 142.2 246.3 L 144.8 247.2 L 147.4 247.8 L 150.0 248.0 L 152.6 247.8 L 155.2 247.2 L 157.8 246.3 L 160.4 244.9 L 163.0 243.2 L 165.6 241.0 L 168.2 238.5 L 170.8 235.6 L 173.4 232.3 L 176.0 228.6 L 178.6 224.6 L 181.2 220.1 L 183.8 215.3 L 186.4 210.1 L 189.0 204.4 L 191.6 198.4 L 194.2 192.0 L 196.8 185.3 L 199.4 178.1 L 202.0 170.6 L 204.6 162.6 L 207.2 154.3 L 209.8 145.6 L 212.4 136.5 L 215.0 127.0 L 217.6 117.1 L 220.2 106.9 L 222.8 96.2 L 225.4 85.2 L 228.0 73.8 L 230.6 62.0 L 233.2 49.8 L 235.8 37.2 L 238.4 24.2 L 241.0 10.8 L 243.6 -2.9 L 246.2 -17.0 L 248.8 -31.6 L 251.4 -46.5 L 254.0 -61.8 L 256.6 -77.4 L 259.2 -93.5 L 261.8 -110.0 L 264.4 -126.8 L 267.0 -144.0 L 269.6 -161.7 L 272.2 -179.7 L 274.8 -198.1 L 277.4 -216.8 L 280.0 -236.0" fill="none" stroke="blue" stroke-width="2" />
    <!-- Intercepts -->
    <circle cx="232.7" cy="52.0" r="3" fill="red" /><circle cx="67.3" cy="52.0" r="3" fill="red" /><circle cx="138.2" cy="244.0" r="3" fill="red" />
    <!-- Labels -->
    <text x="232.7" y="67.0" font-family="sans-serif" font-size="10" text-anchor="middle" dominant-baseline="hanging" fill="#333">4</text><text x="67.3" y="67.0" font-family="sans-serif" font-size="10" text-anchor="middle" dominant-baseline="hanging" fill="#333">-3</text><text x="148.2" y="244.0" font-family="sans-serif" font-size="10" text-anchor="start" dominant-baseline="middle" fill="#333">-12</text>
    <!-- Equation -->
    <text x="150" y="295" font-family="sans-serif" font-size="12" text-anchor="middle" fill="#666">y = 1x² + -1x + -12</text>
  </svg>