<svg width="300" height="300" viewBox="0 0 300 300" xmlns="http://www.w3.org/2000/svg" style="background:white; border:1px solid #eee;">
    <defs>
      <marker id="arrowhead" markerWidth="10" markerHeight="7" refX="9" refY="3.5" orient="auto">
        <polygon points="0 0, 10 3.5, 0 7" fill="#888" />
      </marker>
    </defs>
    <!-- Axes -->
    <line x1="10" y1="60" x2="290" y2="60" stroke="#888" stroke-width="1" marker-end="url(#arrowhead)" />
    <line x1="124" y1="290" x2="124" y2="10" stroke="#888" stroke-width="1" marker-end="url(#arrowhead)" />
    <!-- Graph -->
    <path d="M 20.0 -260.0 L 22.6 -240.2 L 25.2 -220.8 L 27.8 -201.8 L 30.4 -183.2 L 33.0 -165.0 L 35.6 -147.2 L 38.2 -129.8 L 40.8 -112.8 L 43.4 -96.2 L 46.0 -80.0 L 48.6 -64.2 L 51.2 -48.8 L 53.8 -33.8 L 56.4 -19.2 L 59.0 -5.0 L 61.6 8.8 L 64.2 22.2 L 66.8 35.2 L 69.4 47.8 L 72.0 60.0 L 74.6 71.8 L 77.2 83.2 L 79.8 94.2 L 82.4 104.8 L 85.0 115.0 L 87.6 124.8 L 90.2 134.2 L 92.8 143.2 L 95.4 151.8 L 98.0 160.0 L 100.6 167.8 L 103.2 175.2 L 105.8 182.2 L 108.4 188.8 L 111.0 195.0 L 113.6 200.8 L 116.2 206.2 L 118.8 211.2 L 121.4 215.8 L 124.0 220.0 L 126.6 223.8 L 129.2 227.2 L 131.8 230.2 L 134.4 232.8 L 137.0 235.0 L 139.6 236.8 L 142.2 238.2 L 144.8 239.2 L 147.4 239.8 L 150.0 240.0 L 152.6 239.8 L 155.2 239.2 L 157.8 238.2 L 160.4 236.8 L 163.0 235.0 L 165.6 232.8 L 168.2 230.2 L 170.8 227.2 L 173.4 223.8 L 176.0 220.0 L 178.6 215.8 L 181.2 211.2 L 183.8 206.2 L 186.4 200.8 L 189.0 195.0 L 191.6 188.8 L 194.2 182.2 L 196.8 175.2 L 199.4 167.8 L 202.0 160.0 L 204.6 151.8 L 207.2 143.2 L 209.8 134.2 L 212.4 124.8 L 215.0 115.0 L 217.6 104.8 L 220.2 94.2 L 222.8 83.2 L 225.4 71.8 L 228.0 60.0 L 230.6 47.8 L 233.2 35.2 L 235.8 22.2 L 238.4 8.8 L 241.0 -5.0 L 243.6 -19.2 L 246.2 -33.8 L 248.8 -48.8 L 251.4 -64.2 L 254.0 -80.0 L 256.6 -96.2 L 259.2 -112.8 L 261.8 -129.8 L 264.4 -147.2 L 267.0 -165.0 L 269.6 -183.2 L 272.2 -201.8 L 274.8 -220.8 L 277.4 -240.2 L 280.0 -260.0" fill="none" stroke="blue" stroke-width="2" />
    <!-- Intercepts -->
    <circle cx="228.0" cy="60.0" r="3" fill="red" /><circle cx="72.0" cy="60.0" r="3" fill="red" /><circle cx="124.0" cy="220.0" r="3" fill="red" />
    <!-- Labels -->
    <text x="228.0" y="75.0" font-family="sans-serif" font-size="10" text-anchor="middle" dominant-baseline="hanging" fill="#333">4</text><text x="72.0" y="75.0" font-family="sans-serif" font-size="10" text-anchor="middle" dominant-baseline="hanging" fill="#333">-2</text><text x="134.0" y="220.0" font-family="sans-serif" font-size="10" text-anchor="start" dominant-baseline="middle" fill="#333">-8</text>
    <!-- Equation -->
    <text x="150" y="295" font-family="sans-serif" font-size="12" text-anchor="middle" fill="#666">y = 1x² + -2x + -8</text>
  </svg>