<svg width="300" height="300" viewBox="0 0 300 300" xmlns="http://www.w3.org/2000/svg" style="background:white; border:1px solid #eee;">
    <defs>
      <marker id="arrowhead" markerWidth="10" markerHeight="7" refX="9" refY="3.5" orient="auto">
        <polygon points="0 0, 10 3.5, 0 7" fill="#888" />
      </marker>
    </defs>
    <!-- Axes -->
    <line x1="10" y1="46" x2="290" y2="46" stroke="#888" stroke-width="1" marker-end="url(#arrowhead)" />
    <line x1="150" y1="290" x2="150" y2="10" stroke="#888" stroke-width="1" marker-end="url(#arrowhead)" />
    <!-- Graph -->
    <path d="M 20.0 -214.0 L 22.6 -195.5 L 25.2 -177.3 L 27.8 -159.5 L 30.4 -142.1 L 33.0 -125.1 L 35.6 -108.4 L 38.2 -92.1 L 40.8 -76.2 L 43.4 -60.7 L 46.0 -45.5 L 48.6 -30.7 L 51.2 -16.3 L 53.8 -2.3 L 56.4 11.4 L 59.0 24.7 L 61.6 37.6 L 64.2 50.1 L 66.8 62.3 L 69.4 74.1 L 72.0 85.5 L 74.6 96.6 L 77.2 107.2 L 79.8 117.5 L 82.4 127.5 L 85.0 137.0 L 87.6 146.2 L 90.2 155.0 L 92.8 163.4 L 95.4 171.4 L 98.0 179.1 L 100.6 186.4 L 103.2 193.3 L 105.8 199.9 L 108.4 206.1 L 111.0 211.9 L 113.6 217.3 L 116.2 222.4 L 118.8 227.0 L 121.4 231.3 L 124.0 235.3 L 126.6 238.8 L 129.2 242.0 L 131.8 244.8 L 134.4 247.3 L 137.0 249.3 L 139.6 251.0 L 142.2 252.3 L 144.8 253.3 L 147.4 253.8 L 150.0 254.0 L 152.6 253.8 L 155.2 253.3 L 157.8 252.3 L 160.4 251.0 L 163.0 249.3 L 165.6 247.3 L 168.2 244.8 L 170.8 242.0 L 173.4 238.8 L 176.0 235.3 L 178.6 231.3 L 181.2 227.0 L 183.8 222.4 L 186.4 217.3 L 189.0 211.9 L 191.6 206.1 L 194.2 199.9 L 196.8 193.3 L 199.4 186.4 L 202.0 179.1 L 204.6 171.4 L 207.2 163.4 L 209.8 155.0 L 212.4 146.2 L 215.0 137.0 L 217.6 127.5 L 220.2 117.5 L 222.8 107.2 L 225.4 96.6 L 228.0 85.5 L 230.6 74.1 L 233.2 62.3 L 235.8 50.1 L 238.4 37.6 L 241.0 24.7 L 243.6 11.4 L 246.2 -2.3 L 248.8 -16.3 L 251.4 -30.7 L 254.0 -45.5 L 256.6 -60.7 L 259.2 -76.2 L 261.8 -92.1 L 264.4 -108.4 L 267.0 -125.1 L 269.6 -142.1 L 272.2 -159.5 L 274.8 -177.3 L 277.4 -195.5 L 280.0 -214.0" fill="none" stroke="blue" stroke-width="2" />
    <!-- Intercepts -->
    <circle cx="236.7" cy="46.0" r="3" fill="red" /><circle cx="63.3" cy="46.0" r="3" fill="red" /><circle cx="150.0" cy="254.0" r="3" fill="red" />
    <!-- Labels -->
    <text x="236.7" y="61.0" font-family="sans-serif" font-size="10" text-anchor="middle" dominant-baseline="hanging" fill="#333">4</text><text x="63.3" y="61.0" font-family="sans-serif" font-size="10" text-anchor="middle" dominant-baseline="hanging" fill="#333">-4</text><text x="160.0" y="254.0" font-family="sans-serif" font-size="10" text-anchor="start" dominant-baseline="middle" fill="#333">-16</text>
    <!-- Equation -->
    <text x="150" y="295" font-family="sans-serif" font-size="12" text-anchor="middle" fill="#666">y = 1x² + 0x + -16</text>
  </svg>