<svg width="300" height="300" viewBox="0 0 300 300" xmlns="http://www.w3.org/2000/svg" style="background:white; border:1px solid #eee;">
    <defs>
      <marker id="arrowhead" markerWidth="10" markerHeight="7" refX="9" refY="3.5" orient="auto">
        <polygon points="0 0, 10 3.5, 0 7" fill="#888" />
      </marker>
    </defs>
    <!-- Axes -->
    <line x1="10" y1="226.20689655172413" x2="290" y2="226.20689655172413" stroke="#888" stroke-width="1" marker-end="url(#arrowhead)" />
    <line x1="67.27272727272728" y1="290" x2="67.27272727272728" y2="10" stroke="#888" stroke-width="1" marker-end="url(#arrowhead)" />
    <!-- Graph -->
    <path d="M 20.0 -177.2 L 22.6 -163.5 L 25.2 -150.1 L 27.8 -136.8 L 30.4 -123.7 L 33.0 -110.9 L 35.6 -98.3 L 38.2 -85.9 L 40.8 -73.7 L 43.4 -61.8 L 46.0 -50.0 L 48.6 -38.5 L 51.2 -27.2 L 53.8 -16.1 L 56.4 -5.2 L 59.0 5.5 L 61.6 15.9 L 64.2 26.1 L 66.8 36.1 L 69.4 45.9 L 72.0 55.5 L 74.6 64.9 L 77.2 74.0 L 79.8 82.9 L 82.4 91.6 L 85.0 100.1 L 87.6 108.4 L 90.2 116.5 L 92.8 124.3 L 95.4 131.9 L 98.0 139.3 L 100.6 146.5 L 103.2 153.5 L 105.8 160.2 L 108.4 166.8 L 111.0 173.1 L 113.6 179.2 L 116.2 185.1 L 118.8 190.8 L 121.4 196.2 L 124.0 201.5 L 126.6 206.5 L 129.2 211.3 L 131.8 215.9 L 134.4 220.2 L 137.0 224.4 L 139.6 228.3 L 142.2 232.0 L 144.8 235.5 L 147.4 238.8 L 150.0 241.9 L 152.6 244.7 L 155.2 247.4 L 157.8 249.8 L 160.4 252.0 L 163.0 254.0 L 165.6 255.7 L 168.2 257.3 L 170.8 258.6 L 173.4 259.7 L 176.0 260.6 L 178.6 261.3 L 181.2 261.8 L 183.8 262.0 L 186.4 262.1 L 189.0 261.9 L 191.6 261.5 L 194.2 260.8 L 196.8 260.0 L 199.4 258.9 L 202.0 257.7 L 204.6 256.2 L 207.2 254.5 L 209.8 252.6 L 212.4 250.4 L 215.0 248.1 L 217.6 245.5 L 220.2 242.7 L 222.8 239.7 L 225.4 236.5 L 228.0 233.0 L 230.6 229.4 L 233.2 225.5 L 235.8 221.4 L 238.4 217.1 L 241.0 212.6 L 243.6 207.8 L 246.2 202.9 L 248.8 197.7 L 251.4 192.3 L 254.0 186.7 L 256.6 180.8 L 259.2 174.8 L 261.8 168.5 L 264.4 162.1 L 267.0 155.4 L 269.6 148.4 L 272.2 141.3 L 274.8 134.0 L 277.4 126.4 L 280.0 118.6" fill="none" stroke="blue" stroke-width="2" />
    <!-- Intercepts -->
    <circle cx="232.7" cy="226.2" r="3" fill="red" /><circle cx="138.2" cy="226.2" r="3" fill="red" /><circle cx="67.3" cy="37.9" r="3" fill="red" />
    <!-- Labels -->
    <text x="232.7" y="241.2" font-family="sans-serif" font-size="10" text-anchor="middle" dominant-baseline="hanging" fill="#333">7</text><text x="138.2" y="241.2" font-family="sans-serif" font-size="10" text-anchor="middle" dominant-baseline="hanging" fill="#333">3</text><text x="77.3" y="37.9" font-family="sans-serif" font-size="10" text-anchor="start" dominant-baseline="middle" fill="#333">21</text>
    <!-- Equation -->
    <text x="150" y="295" font-family="sans-serif" font-size="12" text-anchor="middle" fill="#666">y = 1x² + -10x + 21</text>
  </svg>