<svg width="300" height="300" viewBox="0 0 300 300" xmlns="http://www.w3.org/2000/svg" style="background:white; border:1px solid #eee;">
    <defs>
      <marker id="arrowhead" markerWidth="10" markerHeight="7" refX="9" refY="3.5" orient="auto">
        <polygon points="0 0, 10 3.5, 0 7" fill="#888" />
      </marker>
    </defs>
    <!-- Axes -->
    <line x1="10" y1="124" x2="290" y2="124" stroke="#888" stroke-width="1" marker-end="url(#arrowhead)" />
    <line x1="150" y1="290" x2="150" y2="10" stroke="#888" stroke-width="1" marker-end="url(#arrowhead)" />
    <!-- Graph -->
    <path d="M 20.0 -292.0 L 22.6 -273.5 L 25.2 -255.3 L 27.8 -237.5 L 30.4 -220.1 L 33.0 -203.1 L 35.6 -186.4 L 38.2 -170.1 L 40.8 -154.2 L 43.4 -138.7 L 46.0 -123.5 L 48.6 -108.7 L 51.2 -94.3 L 53.8 -80.3 L 56.4 -66.6 L 59.0 -53.3 L 61.6 -40.4 L 64.2 -27.9 L 66.8 -15.7 L 69.4 -3.9 L 72.0 7.5 L 74.6 18.6 L 77.2 29.2 L 79.8 39.5 L 82.4 49.5 L 85.0 59.0 L 87.6 68.2 L 90.2 77.0 L 92.8 85.4 L 95.4 93.4 L 98.0 101.1 L 100.6 108.4 L 103.2 115.3 L 105.8 121.9 L 108.4 128.1 L 111.0 133.9 L 113.6 139.3 L 116.2 144.4 L 118.8 149.0 L 121.4 153.3 L 124.0 157.3 L 126.6 160.8 L 129.2 164.0 L 131.8 166.8 L 134.4 169.3 L 137.0 171.3 L 139.6 173.0 L 142.2 174.3 L 144.8 175.3 L 147.4 175.8 L 150.0 176.0 L 152.6 175.8 L 155.2 175.3 L 157.8 174.3 L 160.4 173.0 L 163.0 171.3 L 165.6 169.3 L 168.2 166.8 L 170.8 164.0 L 173.4 160.8 L 176.0 157.3 L 178.6 153.3 L 181.2 149.0 L 183.8 144.4 L 186.4 139.3 L 189.0 133.9 L 191.6 128.1 L 194.2 121.9 L 196.8 115.3 L 199.4 108.4 L 202.0 101.1 L 204.6 93.4 L 207.2 85.4 L 209.8 77.0 L 212.4 68.2 L 215.0 59.0 L 217.6 49.5 L 220.2 39.5 L 222.8 29.2 L 225.4 18.6 L 228.0 7.5 L 230.6 -3.9 L 233.2 -15.7 L 235.8 -27.9 L 238.4 -40.4 L 241.0 -53.3 L 243.6 -66.6 L 246.2 -80.3 L 248.8 -94.3 L 251.4 -108.7 L 254.0 -123.5 L 256.6 -138.7 L 259.2 -154.2 L 261.8 -170.1 L 264.4 -186.4 L 267.0 -203.1 L 269.6 -220.1 L 272.2 -237.5 L 274.8 -255.3 L 277.4 -273.5 L 280.0 -292.0" fill="none" stroke="blue" stroke-width="2" />
    <!-- Intercepts -->
    <circle cx="193.3" cy="124.0" r="3" fill="red" /><circle cx="106.7" cy="124.0" r="3" fill="red" /><circle cx="150.0" cy="176.0" r="3" fill="red" />
    <!-- Labels -->
    <text x="193.3" y="139.0" font-family="sans-serif" font-size="10" text-anchor="middle" dominant-baseline="hanging" fill="#333">1</text><text x="106.7" y="139.0" font-family="sans-serif" font-size="10" text-anchor="middle" dominant-baseline="hanging" fill="#333">-1</text><text x="160.0" y="176.0" font-family="sans-serif" font-size="10" text-anchor="start" dominant-baseline="middle" fill="#333">-1</text>
    <!-- Equation -->
    <text x="150" y="295" font-family="sans-serif" font-size="12" text-anchor="middle" fill="#666">y = 1x² + 0x + -1</text>
  </svg>