<svg width="300" height="300" viewBox="0 0 300 300" xmlns="http://www.w3.org/2000/svg" style="background:white; border:1px solid #eee;">
    <defs>
      <marker id="arrowhead" markerWidth="10" markerHeight="7" refX="9" refY="3.5" orient="auto">
        <polygon points="0 0, 10 3.5, 0 7" fill="#888" />
      </marker>
    </defs>
    <!-- Axes -->
    <line x1="10" y1="56.923076923076906" x2="290" y2="56.923076923076906" stroke="#888" stroke-width="1" marker-end="url(#arrowhead)" />
    <line x1="110.43478260869566" y1="290" x2="110.43478260869566" y2="10" stroke="#888" stroke-width="1" marker-end="url(#arrowhead)" />
    <!-- Graph -->
    <path d="M 20.0 -570.8 L 22.6 -538.5 L 25.2 -507.0 L 27.8 -476.0 L 30.4 -445.8 L 33.0 -416.1 L 35.6 -387.2 L 38.2 -358.8 L 40.8 -331.2 L 43.4 -304.2 L 46.0 -277.8 L 48.6 -252.1 L 51.2 -227.0 L 53.8 -202.6 L 56.4 -178.8 L 59.0 -155.7 L 61.6 -133.2 L 64.2 -111.4 L 66.8 -90.3 L 69.4 -69.8 L 72.0 -49.9 L 74.6 -30.7 L 77.2 -12.1 L 79.8 5.8 L 82.4 23.0 L 85.0 39.6 L 87.6 55.6 L 90.2 70.9 L 92.8 85.5 L 95.4 99.5 L 98.0 112.9 L 100.6 125.6 L 103.2 137.6 L 105.8 149.0 L 108.4 159.7 L 111.0 169.8 L 113.6 179.3 L 116.2 188.1 L 118.8 196.2 L 121.4 203.7 L 124.0 210.5 L 126.6 216.7 L 129.2 222.2 L 131.8 227.1 L 134.4 231.4 L 137.0 234.9 L 139.6 237.9 L 142.2 240.1 L 144.8 241.8 L 147.4 242.8 L 150.0 243.1 L 152.6 242.8 L 155.2 241.8 L 157.8 240.1 L 160.4 237.9 L 163.0 234.9 L 165.6 231.4 L 168.2 227.1 L 170.8 222.2 L 173.4 216.7 L 176.0 210.5 L 178.6 203.7 L 181.2 196.2 L 183.8 188.1 L 186.4 179.3 L 189.0 169.8 L 191.6 159.7 L 194.2 149.0 L 196.8 137.6 L 199.4 125.6 L 202.0 112.9 L 204.6 99.5 L 207.2 85.5 L 209.8 70.9 L 212.4 55.6 L 215.0 39.6 L 217.6 23.0 L 220.2 5.8 L 222.8 -12.1 L 225.4 -30.7 L 228.0 -49.9 L 230.6 -69.8 L 233.2 -90.3 L 235.8 -111.4 L 238.4 -133.2 L 241.0 -155.7 L 243.6 -178.8 L 246.2 -202.6 L 248.8 -227.0 L 251.4 -252.1 L 254.0 -277.8 L 256.6 -304.2 L 259.2 -331.2 L 261.8 -358.8 L 264.4 -387.2 L 267.0 -416.1 L 269.6 -445.8 L 272.2 -476.0 L 274.8 -507.0 L 277.4 -538.5 L 280.0 -570.8" fill="none" stroke="blue" stroke-width="2" />
    <!-- Intercepts -->
    <circle cx="212.2" cy="56.9" r="3" fill="red" /><circle cx="87.8" cy="56.9" r="3" fill="red" /><circle cx="110.4" cy="167.7" r="3" fill="red" />
    <!-- Labels -->
    <text x="212.2" y="71.9" font-family="sans-serif" font-size="10" text-anchor="middle" dominant-baseline="hanging" fill="#333">3</text><text x="87.8" y="71.9" font-family="sans-serif" font-size="10" text-anchor="middle" dominant-baseline="hanging" fill="#333">-0.7</text><text x="120.4" y="167.7" font-family="sans-serif" font-size="10" text-anchor="start" dominant-baseline="middle" fill="#333">-6</text>
    <!-- Equation -->
    <text x="150" y="295" font-family="sans-serif" font-size="12" text-anchor="middle" fill="#666">y = 3x² + -7x + -6</text>
  </svg>