<svg width="300" height="300" viewBox="0 0 300 300" xmlns="http://www.w3.org/2000/svg" style="background:white; border:1px solid #eee;">
    <defs>
      <marker id="arrowhead" markerWidth="10" markerHeight="7" refX="9" refY="3.5" orient="auto">
        <polygon points="0 0, 10 3.5, 0 7" fill="#888" />
      </marker>
    </defs>
    <!-- Axes -->
    <line x1="10" y1="37.93103448275863" x2="290" y2="37.93103448275863" stroke="#888" stroke-width="1" marker-end="url(#arrowhead)" />
    <line x1="150" y1="290" x2="150" y2="10" stroke="#888" stroke-width="1" marker-end="url(#arrowhead)" />
    <!-- Graph -->
    <path d="M 20.0 -177.2 L 22.6 -159.8 L 25.2 -142.8 L 27.8 -126.1 L 30.4 -109.8 L 33.0 -93.8 L 35.6 -78.1 L 38.2 -62.8 L 40.8 -47.9 L 43.4 -33.3 L 46.0 -19.1 L 48.6 -5.2 L 51.2 8.3 L 53.8 21.5 L 56.4 34.3 L 59.0 46.8 L 61.6 58.9 L 64.2 70.7 L 66.8 82.1 L 69.4 93.2 L 72.0 103.9 L 74.6 114.3 L 77.2 124.3 L 79.8 134.0 L 82.4 143.3 L 85.0 152.2 L 87.6 160.9 L 90.2 169.1 L 92.8 177.0 L 95.4 184.6 L 98.0 191.8 L 100.6 198.6 L 103.2 205.1 L 105.8 211.3 L 108.4 217.1 L 111.0 222.5 L 113.6 227.6 L 116.2 232.4 L 118.8 236.8 L 121.4 240.8 L 124.0 244.5 L 126.6 247.8 L 129.2 250.8 L 131.8 253.5 L 134.4 255.7 L 137.0 257.7 L 139.6 259.3 L 142.2 260.5 L 144.8 261.4 L 147.4 261.9 L 150.0 262.1 L 152.6 261.9 L 155.2 261.4 L 157.8 260.5 L 160.4 259.3 L 163.0 257.7 L 165.6 255.7 L 168.2 253.5 L 170.8 250.8 L 173.4 247.8 L 176.0 244.5 L 178.6 240.8 L 181.2 236.8 L 183.8 232.4 L 186.4 227.6 L 189.0 222.5 L 191.6 217.1 L 194.2 211.3 L 196.8 205.1 L 199.4 198.6 L 202.0 191.8 L 204.6 184.6 L 207.2 177.0 L 209.8 169.1 L 212.4 160.9 L 215.0 152.2 L 217.6 143.3 L 220.2 134.0 L 222.8 124.3 L 225.4 114.3 L 228.0 103.9 L 230.6 93.2 L 233.2 82.1 L 235.8 70.7 L 238.4 58.9 L 241.0 46.8 L 243.6 34.3 L 246.2 21.5 L 248.8 8.3 L 251.4 -5.2 L 254.0 -19.1 L 256.6 -33.3 L 259.2 -47.9 L 261.8 -62.8 L 264.4 -78.1 L 267.0 -93.8 L 269.6 -109.8 L 272.2 -126.1 L 274.8 -142.8 L 277.4 -159.8 L 280.0 -177.2" fill="none" stroke="blue" stroke-width="2" />
    <!-- Intercepts -->
    <circle cx="242.9" cy="37.9" r="3" fill="red" /><circle cx="57.1" cy="37.9" r="3" fill="red" /><circle cx="150.0" cy="262.1" r="3" fill="red" />
    <!-- Labels -->
    <text x="242.9" y="52.9" font-family="sans-serif" font-size="10" text-anchor="middle" dominant-baseline="hanging" fill="#333">5</text><text x="57.1" y="52.9" font-family="sans-serif" font-size="10" text-anchor="middle" dominant-baseline="hanging" fill="#333">-5</text><text x="160.0" y="262.1" font-family="sans-serif" font-size="10" text-anchor="start" dominant-baseline="middle" fill="#333">-25</text>
    <!-- Equation -->
    <text x="150" y="295" font-family="sans-serif" font-size="12" text-anchor="middle" fill="#666">y = 1x² + 0x + -25</text>
  </svg>