<svg width="300" height="300" viewBox="0 0 300 300" xmlns="http://www.w3.org/2000/svg" style="background:white; border:1px solid #eee;">
    <defs>
      <marker id="arrowhead" markerWidth="10" markerHeight="7" refX="9" refY="3.5" orient="auto">
        <polygon points="0 0, 10 3.5, 0 7" fill="#888" />
      </marker>
    </defs>
    <!-- Axes -->
    <line x1="10" y1="186.4" x2="290" y2="186.4" stroke="#888" stroke-width="1" marker-end="url(#arrowhead)" />
    <line x1="193.33333333333331" y1="290" x2="193.33333333333331" y2="10" stroke="#888" stroke-width="1" marker-end="url(#arrowhead)" />
    <!-- Graph -->
    <path d="M 20.0 -63.2 L 22.6 -50.9 L 25.2 -38.8 L 27.8 -27.1 L 30.4 -15.7 L 33.0 -4.5 L 35.6 6.3 L 38.2 16.8 L 40.8 27.1 L 43.4 37.0 L 46.0 46.6 L 48.6 56.0 L 51.2 65.0 L 53.8 73.7 L 56.4 82.2 L 59.0 90.3 L 61.6 98.1 L 64.2 105.7 L 66.8 112.9 L 69.4 119.9 L 72.0 126.5 L 74.6 132.8 L 77.2 138.9 L 79.8 144.6 L 82.4 150.1 L 85.0 155.2 L 87.6 160.0 L 90.2 164.6 L 92.8 168.8 L 95.4 172.8 L 98.0 176.4 L 100.6 179.8 L 103.2 182.8 L 105.8 185.6 L 108.4 188.0 L 111.0 190.1 L 113.6 192.0 L 116.2 193.5 L 118.8 194.8 L 121.4 195.7 L 124.0 196.4 L 126.6 196.7 L 129.2 196.8 L 131.8 196.5 L 134.4 196.0 L 137.0 195.1 L 139.6 194.0 L 142.2 192.5 L 144.8 190.8 L 147.4 188.7 L 150.0 186.4 L 152.6 183.8 L 155.2 180.8 L 157.8 177.6 L 160.4 174.0 L 163.0 170.2 L 165.6 166.0 L 168.2 161.6 L 170.8 156.8 L 173.4 151.8 L 176.0 146.5 L 178.6 140.8 L 181.2 134.9 L 183.8 128.6 L 186.4 122.1 L 189.0 115.3 L 191.6 108.1 L 194.2 100.7 L 196.8 92.9 L 199.4 84.9 L 202.0 76.6 L 204.6 67.9 L 207.2 59.0 L 209.8 49.8 L 212.4 40.2 L 215.0 30.4 L 217.6 20.3 L 220.2 9.8 L 222.8 -0.9 L 225.4 -11.9 L 228.0 -23.3 L 230.6 -34.9 L 233.2 -46.8 L 235.8 -59.1 L 238.4 -71.6 L 241.0 -84.4 L 243.6 -97.5 L 246.2 -111.0 L 248.8 -124.7 L 251.4 -138.7 L 254.0 -153.1 L 256.6 -167.7 L 259.2 -182.6 L 261.8 -197.8 L 264.4 -213.4 L 267.0 -229.2 L 269.6 -245.3 L 272.2 -261.7 L 274.8 -278.5 L 277.4 -295.5 L 280.0 -312.8" fill="none" stroke="blue" stroke-width="2" />
    <!-- Intercepts -->
    <circle cx="150.0" cy="186.4" r="3" fill="red" /><circle cx="106.7" cy="186.4" r="3" fill="red" /><circle cx="193.3" cy="103.2" r="3" fill="red" />
    <!-- Labels -->
    <text x="150.0" y="201.4" font-family="sans-serif" font-size="10" text-anchor="middle" dominant-baseline="hanging" fill="#333">-1</text><text x="106.7" y="201.4" font-family="sans-serif" font-size="10" text-anchor="middle" dominant-baseline="hanging" fill="#333">-2</text><text x="203.3" y="103.2" font-family="sans-serif" font-size="10" text-anchor="start" dominant-baseline="middle" fill="#333">2</text>
    <!-- Equation -->
    <text x="150" y="295" font-family="sans-serif" font-size="12" text-anchor="middle" fill="#666">y = 1x² + 3x + 2</text>
  </svg>