<svg width="300" height="300" viewBox="0 0 300 300" xmlns="http://www.w3.org/2000/svg" style="background:white; border:1px solid #eee;">
    <defs>
      <marker id="arrowhead" markerWidth="10" markerHeight="7" refX="9" refY="3.5" orient="auto">
        <polygon points="0 0, 10 3.5, 0 7" fill="#888" />
      </marker>
    </defs>
    <!-- Axes -->
    <line x1="10" y1="137" x2="290" y2="137" stroke="#888" stroke-width="1" marker-end="url(#arrowhead)" />
    <line x1="67.27272727272728" y1="290" x2="67.27272727272728" y2="10" stroke="#888" stroke-width="1" marker-end="url(#arrowhead)" />
    <!-- Graph -->
    <path d="M 20.0 -214.0 L 22.6 -197.0 L 25.2 -180.3 L 27.8 -163.9 L 30.4 -147.9 L 33.0 -132.1 L 35.6 -116.7 L 38.2 -101.6 L 40.8 -86.8 L 43.4 -72.3 L 46.0 -58.1 L 48.6 -44.3 L 51.2 -30.7 L 53.8 -17.5 L 56.4 -4.6 L 59.0 8.0 L 61.6 20.3 L 64.2 32.3 L 66.8 43.9 L 69.4 55.3 L 72.0 66.3 L 74.6 77.0 L 77.2 87.4 L 79.8 97.5 L 82.4 107.2 L 85.0 116.7 L 87.6 125.8 L 90.2 134.6 L 92.8 143.2 L 95.4 151.4 L 98.0 159.2 L 100.6 166.8 L 103.2 174.0 L 105.8 181.0 L 108.4 187.6 L 111.0 193.9 L 113.6 199.9 L 116.2 205.6 L 118.8 210.9 L 121.4 216.0 L 124.0 220.7 L 126.6 225.1 L 129.2 229.2 L 131.8 233.0 L 134.4 236.5 L 137.0 239.7 L 139.6 242.5 L 142.2 245.0 L 144.8 247.3 L 147.4 249.2 L 150.0 250.8 L 152.6 252.0 L 155.2 253.0 L 157.8 253.6 L 160.4 254.0 L 163.0 254.0 L 165.6 253.7 L 168.2 253.1 L 170.8 252.1 L 173.4 250.9 L 176.0 249.3 L 178.6 247.4 L 181.2 245.3 L 183.8 242.8 L 186.4 239.9 L 189.0 236.8 L 191.6 233.4 L 194.2 229.6 L 196.8 225.5 L 199.4 221.1 L 202.0 216.4 L 204.6 211.4 L 207.2 206.1 L 209.8 200.4 L 212.4 194.5 L 215.0 188.2 L 217.6 181.6 L 220.2 174.7 L 222.8 167.5 L 225.4 159.9 L 228.0 152.1 L 230.6 143.9 L 233.2 135.4 L 235.8 126.6 L 238.4 117.5 L 241.0 108.1 L 243.6 98.4 L 246.2 88.3 L 248.8 77.9 L 251.4 67.3 L 254.0 56.3 L 256.6 45.0 L 259.2 33.3 L 261.8 21.4 L 264.4 9.1 L 267.0 -3.4 L 269.6 -16.3 L 272.2 -29.5 L 274.8 -43.0 L 277.4 -56.9 L 280.0 -71.0" fill="none" stroke="blue" stroke-width="2" />
    <!-- Intercepts -->
    <circle cx="232.7" cy="137.0" r="3" fill="red" /><circle cx="90.9" cy="137.0" r="3" fill="red" /><circle cx="67.3" cy="46.0" r="3" fill="red" />
    <!-- Labels -->
    <text x="232.7" y="152.0" font-family="sans-serif" font-size="10" text-anchor="middle" dominant-baseline="hanging" fill="#333">7</text><text x="90.9" y="152.0" font-family="sans-serif" font-size="10" text-anchor="middle" dominant-baseline="hanging" fill="#333">1</text><text x="77.3" y="46.0" font-family="sans-serif" font-size="10" text-anchor="start" dominant-baseline="middle" fill="#333">7</text>
    <!-- Equation -->
    <text x="150" y="295" font-family="sans-serif" font-size="12" text-anchor="middle" fill="#666">y = 1x² + -8x + 7</text>
  </svg>