<svg width="300" height="300" viewBox="0 0 300 300" xmlns="http://www.w3.org/2000/svg" style="background:white; border:1px solid #eee;">
    <defs>
      <marker id="arrowhead" markerWidth="10" markerHeight="7" refX="9" refY="3.5" orient="auto">
        <polygon points="0 0, 10 3.5, 0 7" fill="#888" />
      </marker>
    </defs>
    <!-- Axes -->
    <line x1="10" y1="33" x2="290" y2="33" stroke="#888" stroke-width="1" marker-end="url(#arrowhead)" />
    <line x1="150" y1="290" x2="150" y2="10" stroke="#888" stroke-width="1" marker-end="url(#arrowhead)" />
    <!-- Graph -->
    <path d="M 20.0 -149.0 L 22.6 -132.5 L 25.2 -116.4 L 27.8 -100.6 L 30.4 -85.1 L 33.0 -70.0 L 35.6 -55.2 L 38.2 -40.7 L 40.8 -26.5 L 43.4 -12.7 L 46.0 0.8 L 48.6 13.9 L 51.2 26.7 L 53.8 39.2 L 56.4 51.3 L 59.0 63.2 L 61.6 74.6 L 64.2 85.8 L 66.8 96.6 L 69.4 107.1 L 72.0 117.2 L 74.6 127.1 L 77.2 136.5 L 79.8 145.7 L 82.4 154.5 L 85.0 163.0 L 87.6 171.2 L 90.2 179.0 L 92.8 186.5 L 95.4 193.6 L 98.0 200.4 L 100.6 206.9 L 103.2 213.1 L 105.8 218.9 L 108.4 224.4 L 111.0 229.6 L 113.6 234.4 L 116.2 238.9 L 118.8 243.0 L 121.4 246.9 L 124.0 250.4 L 126.6 253.5 L 129.2 256.4 L 131.8 258.8 L 134.4 261.0 L 137.0 262.8 L 139.6 264.3 L 142.2 265.5 L 144.8 266.3 L 147.4 266.8 L 150.0 267.0 L 152.6 266.8 L 155.2 266.3 L 157.8 265.5 L 160.4 264.3 L 163.0 262.8 L 165.6 261.0 L 168.2 258.8 L 170.8 256.4 L 173.4 253.5 L 176.0 250.4 L 178.6 246.9 L 181.2 243.0 L 183.8 238.9 L 186.4 234.4 L 189.0 229.6 L 191.6 224.4 L 194.2 218.9 L 196.8 213.1 L 199.4 206.9 L 202.0 200.4 L 204.6 193.6 L 207.2 186.5 L 209.8 179.0 L 212.4 171.2 L 215.0 163.0 L 217.6 154.5 L 220.2 145.7 L 222.8 136.5 L 225.4 127.1 L 228.0 117.2 L 230.6 107.1 L 233.2 96.6 L 235.8 85.8 L 238.4 74.6 L 241.0 63.2 L 243.6 51.3 L 246.2 39.2 L 248.8 26.7 L 251.4 13.9 L 254.0 0.8 L 256.6 -12.7 L 259.2 -26.5 L 261.8 -40.7 L 264.4 -55.2 L 267.0 -70.0 L 269.6 -85.1 L 272.2 -100.6 L 274.8 -116.4 L 277.4 -132.5 L 280.0 -149.0" fill="none" stroke="blue" stroke-width="2" />
    <!-- Intercepts -->
    <circle cx="247.5" cy="33.0" r="3" fill="red" /><circle cx="52.5" cy="33.0" r="3" fill="red" /><circle cx="150.0" cy="267.0" r="3" fill="red" />
    <!-- Labels -->
    <text x="247.5" y="48.0" font-family="sans-serif" font-size="10" text-anchor="middle" dominant-baseline="hanging" fill="#333">6</text><text x="52.5" y="48.0" font-family="sans-serif" font-size="10" text-anchor="middle" dominant-baseline="hanging" fill="#333">-6</text><text x="160.0" y="267.0" font-family="sans-serif" font-size="10" text-anchor="start" dominant-baseline="middle" fill="#333">-36</text>
    <!-- Equation -->
    <text x="150" y="295" font-family="sans-serif" font-size="12" text-anchor="middle" fill="#666">y = 1x² + 0x + -36</text>
  </svg>