<svg width="300" height="300" viewBox="0 0 300 300" xmlns="http://www.w3.org/2000/svg" style="background:white; border:1px solid #eee;">
    <defs>
      <marker id="arrowhead" markerWidth="10" markerHeight="7" refX="9" refY="3.5" orient="auto">
        <polygon points="0 0, 10 3.5, 0 7" fill="#888" />
      </marker>
    </defs>
    <!-- Axes -->
    <line x1="10" y1="171.82481751824818" x2="290" y2="171.82481751824818" stroke="#888" stroke-width="1" marker-end="url(#arrowhead)" />
    <line x1="60" y1="290" x2="60" y2="10" stroke="#888" stroke-width="1" marker-end="url(#arrowhead)" />
    <!-- Graph -->
    <path d="M 20.0 -162.2 L 22.6 -147.5 L 25.2 -133.1 L 27.8 -118.9 L 30.4 -105.0 L 33.0 -91.4 L 35.6 -78.0 L 38.2 -64.9 L 40.8 -52.0 L 43.4 -39.4 L 46.0 -27.0 L 48.6 -14.9 L 51.2 -3.0 L 53.8 8.6 L 56.4 19.9 L 59.0 31.0 L 61.6 41.8 L 64.2 52.4 L 66.8 62.7 L 69.4 72.8 L 72.0 82.6 L 74.6 92.1 L 77.2 101.4 L 79.8 110.4 L 82.4 119.2 L 85.0 127.7 L 87.6 136.0 L 90.2 144.0 L 92.8 151.7 L 95.4 159.2 L 98.0 166.4 L 100.6 173.4 L 103.2 180.1 L 105.8 186.6 L 108.4 192.8 L 111.0 198.8 L 113.6 204.4 L 116.2 209.9 L 118.8 215.1 L 121.4 220.0 L 124.0 224.7 L 126.6 229.1 L 129.2 233.2 L 131.8 237.1 L 134.4 240.8 L 137.0 244.2 L 139.6 247.3 L 142.2 250.2 L 144.8 252.8 L 147.4 255.1 L 150.0 257.2 L 152.6 259.1 L 155.2 260.7 L 157.8 262.0 L 160.4 263.1 L 163.0 263.9 L 165.6 264.5 L 168.2 264.8 L 170.8 264.8 L 173.4 264.6 L 176.0 264.1 L 178.6 263.4 L 181.2 262.4 L 183.8 261.2 L 186.4 259.7 L 189.0 258.0 L 191.6 256.0 L 194.2 253.7 L 196.8 251.2 L 199.4 248.4 L 202.0 245.4 L 204.6 242.1 L 207.2 238.6 L 209.8 234.8 L 212.4 230.7 L 215.0 226.4 L 217.6 221.8 L 220.2 217.0 L 222.8 211.9 L 225.4 206.6 L 228.0 201.0 L 230.6 195.1 L 233.2 189.0 L 235.8 182.6 L 238.4 176.0 L 241.0 169.1 L 243.6 162.0 L 246.2 154.6 L 248.8 147.0 L 251.4 139.1 L 254.0 130.9 L 256.6 122.5 L 259.2 113.8 L 261.8 104.9 L 264.4 95.7 L 267.0 86.3 L 269.6 76.6 L 272.2 66.6 L 274.8 56.4 L 277.4 45.9 L 280.0 35.2" fill="none" stroke="blue" stroke-width="2" />
    <!-- Intercepts -->
    <circle cx="240.0" cy="171.8" r="3" fill="red" /><circle cx="100.0" cy="171.8" r="3" fill="red" /><circle cx="60.0" cy="35.2" r="3" fill="red" />
    <!-- Labels -->
    <text x="240.0" y="186.8" font-family="sans-serif" font-size="10" text-anchor="middle" dominant-baseline="hanging" fill="#333">9</text><text x="100.0" y="186.8" font-family="sans-serif" font-size="10" text-anchor="middle" dominant-baseline="hanging" fill="#333">2</text><text x="70.0" y="35.2" font-family="sans-serif" font-size="10" text-anchor="start" dominant-baseline="middle" fill="#333">18</text>
    <!-- Equation -->
    <text x="150" y="295" font-family="sans-serif" font-size="12" text-anchor="middle" fill="#666">y = 1x² + -11x + 18</text>
  </svg>