<svg width="300" height="300" viewBox="0 0 300 300" xmlns="http://www.w3.org/2000/svg" style="background:white; border:1px solid #eee;">
    <defs>
      <marker id="arrowhead" markerWidth="10" markerHeight="7" refX="9" refY="3.5" orient="auto">
        <polygon points="0 0, 10 3.5, 0 7" fill="#888" />
      </marker>
    </defs>
    <!-- Axes -->
    <line x1="10" y1="148" x2="290" y2="148" stroke="#888" stroke-width="1" marker-end="url(#arrowhead)" />
    <line x1="228" y1="290" x2="228" y2="10" stroke="#888" stroke-width="1" marker-end="url(#arrowhead)" />
    <!-- Graph -->
    <path d="M 20.0 -76.0 L 22.6 -61.8 L 25.2 -47.8 L 27.8 -34.2 L 30.4 -21.0 L 33.0 -8.0 L 35.6 4.6 L 38.2 17.0 L 40.8 29.0 L 43.4 40.6 L 46.0 52.0 L 48.6 63.0 L 51.2 73.8 L 53.8 84.2 L 56.4 94.2 L 59.0 104.0 L 61.6 113.4 L 64.2 122.6 L 66.8 131.4 L 69.4 139.8 L 72.0 148.0 L 74.6 155.8 L 77.2 163.4 L 79.8 170.6 L 82.4 177.4 L 85.0 184.0 L 87.6 190.2 L 90.2 196.2 L 92.8 201.8 L 95.4 207.0 L 98.0 212.0 L 100.6 216.6 L 103.2 221.0 L 105.8 225.0 L 108.4 228.6 L 111.0 232.0 L 113.6 235.0 L 116.2 237.8 L 118.8 240.2 L 121.4 242.2 L 124.0 244.0 L 126.6 245.4 L 129.2 246.6 L 131.8 247.4 L 134.4 247.8 L 137.0 248.0 L 139.6 247.8 L 142.2 247.4 L 144.8 246.6 L 147.4 245.4 L 150.0 244.0 L 152.6 242.2 L 155.2 240.2 L 157.8 237.8 L 160.4 235.0 L 163.0 232.0 L 165.6 228.6 L 168.2 225.0 L 170.8 221.0 L 173.4 216.6 L 176.0 212.0 L 178.6 207.0 L 181.2 201.8 L 183.8 196.2 L 186.4 190.2 L 189.0 184.0 L 191.6 177.4 L 194.2 170.6 L 196.8 163.4 L 199.4 155.8 L 202.0 148.0 L 204.6 139.8 L 207.2 131.4 L 209.8 122.6 L 212.4 113.4 L 215.0 104.0 L 217.6 94.2 L 220.2 84.2 L 222.8 73.8 L 225.4 63.0 L 228.0 52.0 L 230.6 40.6 L 233.2 29.0 L 235.8 17.0 L 238.4 4.6 L 241.0 -8.0 L 243.6 -21.0 L 246.2 -34.2 L 248.8 -47.8 L 251.4 -61.8 L 254.0 -76.0 L 256.6 -90.6 L 259.2 -105.4 L 261.8 -120.6 L 264.4 -136.2 L 267.0 -152.0 L 269.6 -168.2 L 272.2 -184.6 L 274.8 -201.4 L 277.4 -218.6 L 280.0 -236.0" fill="none" stroke="blue" stroke-width="2" />
    <!-- Intercepts -->
    <circle cx="202.0" cy="148.0" r="3" fill="red" /><circle cx="72.0" cy="148.0" r="3" fill="red" /><circle cx="228.0" cy="52.0" r="3" fill="red" />
    <!-- Labels -->
    <text x="202.0" y="163.0" font-family="sans-serif" font-size="10" text-anchor="middle" dominant-baseline="hanging" fill="#333">-1</text><text x="72.0" y="163.0" font-family="sans-serif" font-size="10" text-anchor="middle" dominant-baseline="hanging" fill="#333">-6</text><text x="238.0" y="52.0" font-family="sans-serif" font-size="10" text-anchor="start" dominant-baseline="middle" fill="#333">6</text>
    <!-- Equation -->
    <text x="150" y="295" font-family="sans-serif" font-size="12" text-anchor="middle" fill="#666">y = 1x² + 7x + 6</text>
  </svg>