<svg width="300" height="300" viewBox="0 0 300 300" xmlns="http://www.w3.org/2000/svg" style="background:white; border:1px solid #eee;">
    <defs>
      <marker id="arrowhead" markerWidth="10" markerHeight="7" refX="9" refY="3.5" orient="auto">
        <polygon points="0 0, 10 3.5, 0 7" fill="#888" />
      </marker>
    </defs>
    <!-- Axes -->
    <line x1="10" y1="160.22471910112358" x2="290" y2="160.22471910112358" stroke="#888" stroke-width="1" marker-end="url(#arrowhead)" />
    <line x1="176" y1="290" x2="176" y2="10" stroke="#888" stroke-width="1" marker-end="url(#arrowhead)" />
    <!-- Graph -->
    <path d="M 20.0 -868.1 L 22.6 -824.2 L 25.2 -781.2 L 27.8 -739.1 L 30.4 -698.0 L 33.0 -657.8 L 35.6 -618.5 L 38.2 -580.2 L 40.8 -542.8 L 43.4 -506.3 L 46.0 -470.8 L 48.6 -436.2 L 51.2 -402.5 L 53.8 -369.8 L 56.4 -338.0 L 59.0 -307.2 L 61.6 -277.3 L 64.2 -248.3 L 66.8 -220.3 L 69.4 -193.1 L 72.0 -167.0 L 74.6 -141.7 L 77.2 -117.4 L 79.8 -94.0 L 82.4 -71.6 L 85.0 -50.1 L 87.6 -29.5 L 90.2 -9.9 L 92.8 8.8 L 95.4 26.5 L 98.0 43.4 L 100.6 59.3 L 103.2 74.2 L 105.8 88.2 L 108.4 101.3 L 111.0 113.5 L 113.6 124.7 L 116.2 135.0 L 118.8 144.3 L 121.4 152.7 L 124.0 160.2 L 126.6 166.8 L 129.2 172.4 L 131.8 177.1 L 134.4 180.8 L 137.0 183.6 L 139.6 185.5 L 142.2 186.4 L 144.8 186.4 L 147.4 185.5 L 150.0 183.6 L 152.6 180.8 L 155.2 177.1 L 157.8 172.4 L 160.4 166.8 L 163.0 160.2 L 165.6 152.7 L 168.2 144.3 L 170.8 135.0 L 173.4 124.7 L 176.0 113.5 L 178.6 101.3 L 181.2 88.2 L 183.8 74.2 L 186.4 59.3 L 189.0 43.4 L 191.6 26.5 L 194.2 8.8 L 196.8 -9.9 L 199.4 -29.5 L 202.0 -50.1 L 204.6 -71.6 L 207.2 -94.0 L 209.8 -117.4 L 212.4 -141.7 L 215.0 -167.0 L 217.6 -193.1 L 220.2 -220.3 L 222.8 -248.3 L 225.4 -277.3 L 228.0 -307.2 L 230.6 -338.0 L 233.2 -369.8 L 235.8 -402.5 L 238.4 -436.2 L 241.0 -470.8 L 243.6 -506.3 L 246.2 -542.8 L 248.8 -580.2 L 251.4 -618.5 L 254.0 -657.8 L 256.6 -698.0 L 259.2 -739.1 L 261.8 -781.2 L 264.4 -824.2 L 267.0 -868.1 L 269.6 -913.0 L 272.2 -958.8 L 274.8 -1005.5 L 277.4 -1053.2 L 280.0 -1101.8" fill="none" stroke="blue" stroke-width="2" />
    <!-- Intercepts -->
    <circle cx="163.0" cy="160.2" r="3" fill="red" /><circle cx="124.0" cy="160.2" r="3" fill="red" /><circle cx="176.0" cy="113.5" r="3" fill="red" />
    <!-- Labels -->
    <text x="163.0" y="175.2" font-family="sans-serif" font-size="10" text-anchor="middle" dominant-baseline="hanging" fill="#333">-0.3</text><text x="124.0" y="175.2" font-family="sans-serif" font-size="10" text-anchor="middle" dominant-baseline="hanging" fill="#333">-1</text><text x="186.0" y="113.5" font-family="sans-serif" font-size="10" text-anchor="start" dominant-baseline="middle" fill="#333">1</text>
    <!-- Equation -->
    <text x="150" y="295" font-family="sans-serif" font-size="12" text-anchor="middle" fill="#666">y = 4x² + 5x + 1</text>
  </svg>