<svg width="300" height="300" viewBox="0 0 300 300" xmlns="http://www.w3.org/2000/svg" style="background:white; border:1px solid #eee;">
    <defs>
      <marker id="arrowhead" markerWidth="10" markerHeight="7" refX="9" refY="3.5" orient="auto">
        <polygon points="0 0, 10 3.5, 0 7" fill="#888" />
      </marker>
    </defs>
    <!-- Axes -->
    <line x1="10" y1="29.811320754716974" x2="290" y2="29.811320754716974" stroke="#888" stroke-width="1" marker-end="url(#arrowhead)" />
    <line x1="150" y1="290" x2="150" y2="10" stroke="#888" stroke-width="1" marker-end="url(#arrowhead)" />
    <!-- Graph -->
    <path d="M 20.0 -127.2 L 22.6 -111.4 L 25.2 -96.0 L 27.8 -80.9 L 30.4 -66.1 L 33.0 -51.7 L 35.6 -37.5 L 38.2 -23.7 L 40.8 -10.2 L 43.4 3.0 L 46.0 15.9 L 48.6 28.4 L 51.2 40.7 L 53.8 52.6 L 56.4 64.2 L 59.0 75.5 L 61.6 86.5 L 64.2 97.1 L 66.8 107.4 L 69.4 117.4 L 72.0 127.1 L 74.6 136.5 L 77.2 145.6 L 79.8 154.3 L 82.4 162.7 L 85.0 170.8 L 87.6 178.6 L 90.2 186.1 L 92.8 193.3 L 95.4 200.1 L 98.0 206.6 L 100.6 212.8 L 103.2 218.7 L 105.8 224.3 L 108.4 229.5 L 111.0 234.4 L 113.6 239.0 L 116.2 243.3 L 118.8 247.3 L 121.4 251.0 L 124.0 254.3 L 126.6 257.3 L 129.2 260.0 L 131.8 262.4 L 134.4 264.5 L 137.0 266.2 L 139.6 267.6 L 142.2 268.8 L 144.8 269.6 L 147.4 270.0 L 150.0 270.2 L 152.6 270.0 L 155.2 269.6 L 157.8 268.8 L 160.4 267.6 L 163.0 266.2 L 165.6 264.5 L 168.2 262.4 L 170.8 260.0 L 173.4 257.3 L 176.0 254.3 L 178.6 251.0 L 181.2 247.3 L 183.8 243.3 L 186.4 239.0 L 189.0 234.4 L 191.6 229.5 L 194.2 224.3 L 196.8 218.7 L 199.4 212.8 L 202.0 206.6 L 204.6 200.1 L 207.2 193.3 L 209.8 186.1 L 212.4 178.6 L 215.0 170.8 L 217.6 162.7 L 220.2 154.3 L 222.8 145.6 L 225.4 136.5 L 228.0 127.1 L 230.6 117.4 L 233.2 107.4 L 235.8 97.1 L 238.4 86.5 L 241.0 75.5 L 243.6 64.2 L 246.2 52.6 L 248.8 40.7 L 251.4 28.4 L 254.0 15.9 L 256.6 3.0 L 259.2 -10.2 L 261.8 -23.7 L 264.4 -37.5 L 267.0 -51.7 L 269.6 -66.1 L 272.2 -80.9 L 274.8 -96.0 L 277.4 -111.4 L 280.0 -127.2" fill="none" stroke="blue" stroke-width="2" />
    <!-- Intercepts -->
    <circle cx="251.1" cy="29.8" r="3" fill="red" /><circle cx="48.9" cy="29.8" r="3" fill="red" /><circle cx="150.0" cy="270.2" r="3" fill="red" />
    <!-- Labels -->
    <text x="251.1" y="44.8" font-family="sans-serif" font-size="10" text-anchor="middle" dominant-baseline="hanging" fill="#333">7</text><text x="48.9" y="44.8" font-family="sans-serif" font-size="10" text-anchor="middle" dominant-baseline="hanging" fill="#333">-7</text><text x="160.0" y="270.2" font-family="sans-serif" font-size="10" text-anchor="start" dominant-baseline="middle" fill="#333">-49</text>
    <!-- Equation -->
    <text x="150" y="295" font-family="sans-serif" font-size="12" text-anchor="middle" fill="#666">y = 1x² + 0x + -49</text>
  </svg>