<svg width="300" height="300" viewBox="0 0 300 300" xmlns="http://www.w3.org/2000/svg" style="background:white; border:1px solid #eee;">
    <defs>
      <marker id="arrowhead" markerWidth="10" markerHeight="7" refX="9" refY="3.5" orient="auto">
        <polygon points="0 0, 10 3.5, 0 7" fill="#888" />
      </marker>
    </defs>
    <!-- Axes -->
    <line x1="10" y1="104.5" x2="290" y2="104.5" stroke="#888" stroke-width="1" marker-end="url(#arrowhead)" />
    <line x1="54.666666666666664" y1="290" x2="54.666666666666664" y2="10" stroke="#888" stroke-width="1" marker-end="url(#arrowhead)" />
    <!-- Graph -->
    <path d="M 20.0 -149.0 L 22.6 -133.5 L 25.2 -118.4 L 27.8 -103.5 L 30.4 -88.9 L 33.0 -74.7 L 35.6 -60.7 L 38.2 -47.0 L 40.8 -33.6 L 43.4 -20.4 L 46.0 -7.6 L 48.6 4.9 L 51.2 17.1 L 53.8 29.1 L 56.4 40.7 L 59.0 52.1 L 61.6 63.2 L 64.2 73.9 L 66.8 84.4 L 69.4 94.6 L 72.0 104.5 L 74.6 114.1 L 77.2 123.4 L 79.8 132.4 L 82.4 141.2 L 85.0 149.6 L 87.6 157.7 L 90.2 165.6 L 92.8 173.1 L 95.4 180.4 L 98.0 187.4 L 100.6 194.1 L 103.2 200.4 L 105.8 206.5 L 108.4 212.3 L 111.0 217.8 L 113.6 223.1 L 116.2 228.0 L 118.8 232.6 L 121.4 237.0 L 124.0 241.0 L 126.6 244.8 L 129.2 248.2 L 131.8 251.4 L 134.4 254.3 L 137.0 256.8 L 139.6 259.1 L 142.2 261.1 L 144.8 262.8 L 147.4 264.3 L 150.0 265.4 L 152.6 266.2 L 155.2 266.7 L 157.8 267.0 L 160.4 266.9 L 163.0 266.6 L 165.6 266.0 L 168.2 265.0 L 170.8 263.8 L 173.4 262.3 L 176.0 260.5 L 178.6 258.4 L 181.2 256.0 L 183.8 253.3 L 186.4 250.4 L 189.0 247.1 L 191.6 243.5 L 194.2 239.7 L 196.8 235.5 L 199.4 231.1 L 202.0 226.4 L 204.6 221.4 L 207.2 216.0 L 209.8 210.4 L 212.4 204.5 L 215.0 198.3 L 217.6 191.9 L 220.2 185.1 L 222.8 178.0 L 225.4 170.7 L 228.0 163.0 L 230.6 155.1 L 233.2 146.8 L 235.8 138.3 L 238.4 129.5 L 241.0 120.3 L 243.6 110.9 L 246.2 101.2 L 248.8 91.2 L 251.4 81.0 L 254.0 70.4 L 256.6 59.5 L 259.2 48.3 L 261.8 36.9 L 264.4 25.1 L 267.0 13.1 L 269.6 0.8 L 272.2 -11.9 L 274.8 -24.8 L 277.4 -38.0 L 280.0 -51.5" fill="none" stroke="blue" stroke-width="2" />
    <!-- Intercepts -->
    <circle cx="245.3" cy="104.5" r="3" fill="red" /><circle cx="72.0" cy="104.5" r="3" fill="red" /><circle cx="54.7" cy="33.0" r="3" fill="red" />
    <!-- Labels -->
    <text x="245.3" y="119.5" font-family="sans-serif" font-size="10" text-anchor="middle" dominant-baseline="hanging" fill="#333">11</text><text x="72.0" y="119.5" font-family="sans-serif" font-size="10" text-anchor="middle" dominant-baseline="hanging" fill="#333">1</text><text x="64.7" y="33.0" font-family="sans-serif" font-size="10" text-anchor="start" dominant-baseline="middle" fill="#333">11</text>
    <!-- Equation -->
    <text x="150" y="295" font-family="sans-serif" font-size="12" text-anchor="middle" fill="#666">y = 1x² + -12x + 11</text>
  </svg>