<svg width="300" height="300" viewBox="0 0 300 300" xmlns="http://www.w3.org/2000/svg" style="background:white; border:1px solid #eee;">
    <defs>
      <marker id="arrowhead" markerWidth="10" markerHeight="7" refX="9" refY="3.5" orient="auto">
        <polygon points="0 0, 10 3.5, 0 7" fill="#888" />
      </marker>
    </defs>
    <!-- Axes -->
    <line x1="10" y1="240.8849557522124" x2="290" y2="240.8849557522124" stroke="#888" stroke-width="1" marker-end="url(#arrowhead)" />
    <line x1="100" y1="290" x2="100" y2="10" stroke="#888" stroke-width="1" marker-end="url(#arrowhead)" />
    <!-- Graph -->
    <path d="M 20.0 -421.8 L 22.6 -401.6 L 25.2 -381.7 L 27.8 -362.2 L 30.4 -342.9 L 33.0 -324.0 L 35.6 -305.3 L 38.2 -287.0 L 40.8 -269.0 L 43.4 -251.3 L 46.0 -233.9 L 48.6 -216.9 L 51.2 -200.1 L 53.8 -183.6 L 56.4 -167.5 L 59.0 -151.7 L 61.6 -136.2 L 64.2 -120.9 L 66.8 -106.0 L 69.4 -91.5 L 72.0 -77.2 L 74.6 -63.2 L 77.2 -49.6 L 79.8 -36.2 L 82.4 -23.2 L 85.0 -10.5 L 87.6 1.9 L 90.2 14.0 L 92.8 25.8 L 95.4 37.3 L 98.0 48.4 L 100.6 59.3 L 103.2 69.8 L 105.8 80.1 L 108.4 90.0 L 111.0 99.6 L 113.6 108.9 L 116.2 117.9 L 118.8 126.5 L 121.4 134.9 L 124.0 143.0 L 126.6 150.7 L 129.2 158.1 L 131.8 165.2 L 134.4 172.1 L 137.0 178.6 L 139.6 184.7 L 142.2 190.6 L 144.8 196.2 L 147.4 201.4 L 150.0 206.4 L 152.6 211.0 L 155.2 215.3 L 157.8 219.3 L 160.4 223.0 L 163.0 226.4 L 165.6 229.5 L 168.2 232.3 L 170.8 234.7 L 173.4 236.8 L 176.0 238.7 L 178.6 240.2 L 181.2 241.4 L 183.8 242.3 L 186.4 242.9 L 189.0 243.2 L 191.6 243.1 L 194.2 242.8 L 196.8 242.1 L 199.4 241.2 L 202.0 239.9 L 204.6 238.3 L 207.2 236.4 L 209.8 234.2 L 212.4 231.6 L 215.0 228.8 L 217.6 225.7 L 220.2 222.2 L 222.8 218.4 L 225.4 214.4 L 228.0 210.0 L 230.6 205.3 L 233.2 200.2 L 235.8 194.9 L 238.4 189.3 L 241.0 183.3 L 243.6 177.1 L 246.2 170.5 L 248.8 163.6 L 251.4 156.4 L 254.0 148.9 L 256.6 141.1 L 259.2 133.0 L 261.8 124.6 L 264.4 115.8 L 267.0 106.8 L 269.6 97.4 L 272.2 87.7 L 274.8 77.7 L 277.4 67.4 L 280.0 56.8" fill="none" stroke="blue" stroke-width="2" />
    <!-- Intercepts -->
    <circle cx="200.0" cy="240.9" r="3" fill="red" /><circle cx="180.0" cy="240.9" r="3" fill="red" /><circle cx="100.0" cy="56.8" r="3" fill="red" />
    <!-- Labels -->
    <text x="200.0" y="255.9" font-family="sans-serif" font-size="10" text-anchor="middle" dominant-baseline="hanging" fill="#333">2.5</text><text x="180.0" y="255.9" font-family="sans-serif" font-size="10" text-anchor="middle" dominant-baseline="hanging" fill="#333">2</text><text x="110.0" y="56.8" font-family="sans-serif" font-size="10" text-anchor="start" dominant-baseline="middle" fill="#333">10</text>
    <!-- Equation -->
    <text x="150" y="295" font-family="sans-serif" font-size="12" text-anchor="middle" fill="#666">y = 2x² + -9x + 10</text>
  </svg>