<svg width="300" height="300" viewBox="0 0 300 300" xmlns="http://www.w3.org/2000/svg" style="background:white; border:1px solid #eee;">
    <defs>
      <marker id="arrowhead" markerWidth="10" markerHeight="7" refX="9" refY="3.5" orient="auto">
        <polygon points="0 0, 10 3.5, 0 7" fill="#888" />
      </marker>
    </defs>
    <!-- Axes -->
    <line x1="10" y1="176" x2="290" y2="176" stroke="#888" stroke-width="1" marker-end="url(#arrowhead)" />
    <line x1="124" y1="290" x2="124" y2="10" stroke="#888" stroke-width="1" marker-end="url(#arrowhead)" />
    <!-- Graph -->
    <path d="M 20.0 -292.0 L 22.6 -276.5 L 25.2 -261.3 L 27.8 -246.4 L 30.4 -231.7 L 33.0 -217.3 L 35.6 -203.1 L 38.2 -189.2 L 40.8 -175.5 L 43.4 -162.1 L 46.0 -149.0 L 48.6 -136.1 L 51.2 -123.5 L 53.8 -111.2 L 56.4 -99.1 L 59.0 -87.3 L 61.6 -75.7 L 64.2 -64.4 L 66.8 -53.3 L 69.4 -42.5 L 72.0 -32.0 L 74.6 -21.7 L 77.2 -11.7 L 79.8 -2.0 L 82.4 7.5 L 85.0 16.8 L 87.6 25.7 L 90.2 34.4 L 92.8 42.9 L 95.4 51.1 L 98.0 59.0 L 100.6 66.7 L 103.2 74.1 L 105.8 81.2 L 108.4 88.1 L 111.0 94.8 L 113.6 101.1 L 116.2 107.2 L 118.8 113.1 L 121.4 118.7 L 124.0 124.0 L 126.6 129.1 L 129.2 133.9 L 131.8 138.4 L 134.4 142.7 L 137.0 146.8 L 139.6 150.5 L 142.2 154.0 L 144.8 157.3 L 147.4 160.3 L 150.0 163.0 L 152.6 165.5 L 155.2 167.7 L 157.8 169.6 L 160.4 171.3 L 163.0 172.8 L 165.6 173.9 L 168.2 174.8 L 170.8 175.5 L 173.4 175.9 L 176.0 176.0 L 178.6 175.9 L 181.2 175.5 L 183.8 174.8 L 186.4 173.9 L 189.0 172.8 L 191.6 171.3 L 194.2 169.6 L 196.8 167.7 L 199.4 165.5 L 202.0 163.0 L 204.6 160.3 L 207.2 157.3 L 209.8 154.0 L 212.4 150.5 L 215.0 146.8 L 217.6 142.7 L 220.2 138.4 L 222.8 133.9 L 225.4 129.1 L 228.0 124.0 L 230.6 118.7 L 233.2 113.1 L 235.8 107.2 L 238.4 101.1 L 241.0 94.8 L 243.6 88.1 L 246.2 81.2 L 248.8 74.1 L 251.4 66.7 L 254.0 59.0 L 256.6 51.1 L 259.2 42.9 L 261.8 34.4 L 264.4 25.7 L 267.0 16.8 L 269.6 7.5 L 272.2 -2.0 L 274.8 -11.7 L 277.4 -21.7 L 280.0 -32.0" fill="none" stroke="blue" stroke-width="2" />
    <!-- Intercepts -->
    <circle cx="176.0" cy="176.0" r="3" fill="red" /><circle cx="176.0" cy="176.0" r="3" fill="red" /><circle cx="124.0" cy="124.0" r="3" fill="red" />
    <!-- Labels -->
    <text x="176.0" y="191.0" font-family="sans-serif" font-size="10" text-anchor="middle" dominant-baseline="hanging" fill="#333">1</text><text x="176.0" y="191.0" font-family="sans-serif" font-size="10" text-anchor="middle" dominant-baseline="hanging" fill="#333">1</text><text x="134.0" y="124.0" font-family="sans-serif" font-size="10" text-anchor="start" dominant-baseline="middle" fill="#333">1</text>
    <!-- Equation -->
    <text x="150" y="295" font-family="sans-serif" font-size="12" text-anchor="middle" fill="#666">y = 1x² + -2x + 1</text>
  </svg>