<svg width="300" height="300" viewBox="0 0 300 300" xmlns="http://www.w3.org/2000/svg" style="background:white; border:1px solid #eee;">
    <defs>
      <marker id="arrowhead" markerWidth="10" markerHeight="7" refX="9" refY="3.5" orient="auto">
        <polygon points="0 0, 10 3.5, 0 7" fill="#888" />
      </marker>
    </defs>
    <!-- Axes -->
    <line x1="10" y1="71.35802469135803" x2="290" y2="71.35802469135803" stroke="#888" stroke-width="1" marker-end="url(#arrowhead)" />
    <line x1="141.33333333333331" y1="290" x2="141.33333333333331" y2="10" stroke="#888" stroke-width="1" marker-end="url(#arrowhead)" />
    <!-- Graph -->
    <path d="M 20.0 -493.6 L 22.6 -465.0 L 25.2 -437.0 L 27.8 -409.5 L 30.4 -382.6 L 33.0 -356.4 L 35.6 -330.6 L 38.2 -305.5 L 40.8 -281.0 L 43.4 -257.0 L 46.0 -233.6 L 48.6 -210.8 L 51.2 -188.5 L 53.8 -166.8 L 56.4 -145.8 L 59.0 -125.2 L 61.6 -105.3 L 64.2 -86.0 L 66.8 -67.2 L 69.4 -49.0 L 72.0 -31.4 L 74.6 -14.3 L 77.2 2.2 L 79.8 18.0 L 82.4 33.4 L 85.0 48.1 L 87.6 62.2 L 90.2 75.8 L 92.8 88.8 L 95.4 101.2 L 98.0 113.1 L 100.6 124.4 L 103.2 135.0 L 105.8 145.2 L 108.4 154.7 L 111.0 163.6 L 113.6 172.0 L 116.2 179.8 L 118.8 187.0 L 121.4 193.7 L 124.0 199.8 L 126.6 205.2 L 129.2 210.2 L 131.8 214.5 L 134.4 218.2 L 137.0 221.4 L 139.6 224.0 L 142.2 226.0 L 144.8 227.5 L 147.4 228.4 L 150.0 228.6 L 152.6 228.4 L 155.2 227.5 L 157.8 226.0 L 160.4 224.0 L 163.0 221.4 L 165.6 218.2 L 168.2 214.5 L 170.8 210.2 L 173.4 205.2 L 176.0 199.8 L 178.6 193.7 L 181.2 187.0 L 183.8 179.8 L 186.4 172.0 L 189.0 163.6 L 191.6 154.7 L 194.2 145.2 L 196.8 135.0 L 199.4 124.4 L 202.0 113.1 L 204.6 101.2 L 207.2 88.8 L 209.8 75.8 L 212.4 62.2 L 215.0 48.1 L 217.6 33.4 L 220.2 18.0 L 222.8 2.2 L 225.4 -14.3 L 228.0 -31.4 L 230.6 -49.0 L 233.2 -67.2 L 235.8 -86.0 L 238.4 -105.3 L 241.0 -125.2 L 243.6 -145.8 L 246.2 -166.8 L 248.8 -188.5 L 251.4 -210.8 L 254.0 -233.6 L 256.6 -257.0 L 259.2 -281.0 L 261.8 -305.5 L 264.4 -330.6 L 267.0 -356.4 L 269.6 -382.6 L 272.2 -409.5 L 274.8 -437.0 L 277.4 -465.0 L 280.0 -493.6" fill="none" stroke="blue" stroke-width="2" />
    <!-- Intercepts -->
    <circle cx="210.7" cy="71.4" r="3" fill="red" /><circle cx="89.3" cy="71.4" r="3" fill="red" /><circle cx="141.3" cy="225.4" r="3" fill="red" />
    <!-- Labels -->
    <text x="210.7" y="86.4" font-family="sans-serif" font-size="10" text-anchor="middle" dominant-baseline="hanging" fill="#333">2</text><text x="89.3" y="86.4" font-family="sans-serif" font-size="10" text-anchor="middle" dominant-baseline="hanging" fill="#333">-1.5</text><text x="151.3" y="225.4" font-family="sans-serif" font-size="10" text-anchor="start" dominant-baseline="middle" fill="#333">-6</text>
    <!-- Equation -->
    <text x="150" y="295" font-family="sans-serif" font-size="12" text-anchor="middle" fill="#666">y = 2x² + -1x + -6</text>
  </svg>