<svg width="300" height="300" viewBox="0 0 300 300" xmlns="http://www.w3.org/2000/svg" style="background:white; border:1px solid #eee;">
    <defs>
      <marker id="arrowhead" markerWidth="10" markerHeight="7" refX="9" refY="3.5" orient="auto">
        <polygon points="0 0, 10 3.5, 0 7" fill="#888" />
      </marker>
    </defs>
    <!-- Axes -->
    <line x1="10" y1="123.48258706467661" x2="290" y2="123.48258706467661" stroke="#888" stroke-width="1" marker-end="url(#arrowhead)" />
    <line x1="193.33333333333331" y1="290" x2="193.33333333333331" y2="10" stroke="#888" stroke-width="1" marker-end="url(#arrowhead)" />
    <!-- Graph -->
    <path d="M 20.0 -859.6 L 22.6 -815.1 L 25.2 -771.4 L 27.8 -728.7 L 30.4 -687.0 L 33.0 -646.2 L 35.6 -606.3 L 38.2 -567.3 L 40.8 -529.3 L 43.4 -492.2 L 46.0 -456.0 L 48.6 -420.8 L 51.2 -386.5 L 53.8 -353.1 L 56.4 -320.7 L 59.0 -289.2 L 61.6 -258.6 L 64.2 -228.9 L 66.8 -200.2 L 69.4 -172.4 L 72.0 -145.6 L 74.6 -119.6 L 77.2 -94.7 L 79.8 -70.6 L 82.4 -47.5 L 85.0 -25.3 L 87.6 -4.0 L 90.2 16.3 L 92.8 35.7 L 95.4 54.2 L 98.0 71.7 L 100.6 88.4 L 103.2 104.0 L 105.8 118.8 L 108.4 132.6 L 111.0 145.5 L 113.6 157.4 L 116.2 168.4 L 118.8 178.5 L 121.4 187.7 L 124.0 195.9 L 126.6 203.2 L 129.2 209.6 L 131.8 215.0 L 134.4 219.5 L 137.0 223.1 L 139.6 225.7 L 142.2 227.4 L 144.8 228.2 L 147.4 228.1 L 150.0 227.0 L 152.6 224.9 L 155.2 222.0 L 157.8 218.1 L 160.4 213.3 L 163.0 207.6 L 165.6 200.9 L 168.2 193.3 L 170.8 184.7 L 173.4 175.3 L 176.0 164.9 L 178.6 153.5 L 181.2 141.3 L 183.8 128.1 L 186.4 114.0 L 189.0 98.9 L 191.6 82.9 L 194.2 66.0 L 196.8 48.1 L 199.4 29.4 L 202.0 9.7 L 204.6 -11.0 L 207.2 -32.6 L 209.8 -55.1 L 212.4 -78.5 L 215.0 -102.9 L 217.6 -128.2 L 220.2 -154.4 L 222.8 -181.6 L 225.4 -209.7 L 228.0 -238.7 L 230.6 -268.7 L 233.2 -299.6 L 235.8 -331.4 L 238.4 -364.1 L 241.0 -397.8 L 243.6 -432.4 L 246.2 -468.0 L 248.8 -504.4 L 251.4 -541.9 L 254.0 -580.2 L 256.6 -619.5 L 259.2 -659.7 L 261.8 -700.8 L 264.4 -742.9 L 267.0 -785.9 L 269.6 -829.8 L 272.2 -874.7 L 274.8 -920.4 L 277.4 -967.2 L 280.0 -1014.8" fill="none" stroke="blue" stroke-width="2" />
    <!-- Intercepts -->
    <circle cx="184.7" cy="123.5" r="3" fill="red" /><circle cx="106.7" cy="123.5" r="3" fill="red" /><circle cx="193.3" cy="71.7" r="3" fill="red" />
    <!-- Labels -->
    <text x="184.7" y="138.5" font-family="sans-serif" font-size="10" text-anchor="middle" dominant-baseline="hanging" fill="#333">-0.2</text><text x="106.7" y="138.5" font-family="sans-serif" font-size="10" text-anchor="middle" dominant-baseline="hanging" fill="#333">-2</text><text x="203.3" y="71.7" font-family="sans-serif" font-size="10" text-anchor="start" dominant-baseline="middle" fill="#333">2</text>
    <!-- Equation -->
    <text x="150" y="295" font-family="sans-serif" font-size="12" text-anchor="middle" fill="#666">y = 5x² + 11x + 2</text>
  </svg>