<svg width="300" height="300" viewBox="0 0 300 300" xmlns="http://www.w3.org/2000/svg" style="background:white; border:1px solid #eee;">
    <defs>
      <marker id="arrowhead" markerWidth="10" markerHeight="7" refX="9" refY="3.5" orient="auto">
        <polygon points="0 0, 10 3.5, 0 7" fill="#888" />
      </marker>
    </defs>
    <!-- Axes -->
    <line x1="10" y1="165.96491228070175" x2="290" y2="165.96491228070175" stroke="#888" stroke-width="1" marker-end="url(#arrowhead)" />
    <line x1="193.33333333333331" y1="290" x2="193.33333333333331" y2="10" stroke="#888" stroke-width="1" marker-end="url(#arrowhead)" />
    <!-- Graph -->
    <path d="M 20.0 -344.9 L 22.6 -321.1 L 25.2 -297.8 L 27.8 -275.0 L 30.4 -252.8 L 33.0 -231.1 L 35.6 -209.9 L 38.2 -189.2 L 40.8 -169.1 L 43.4 -149.4 L 46.0 -130.3 L 48.6 -111.8 L 51.2 -93.7 L 53.8 -76.2 L 56.4 -59.2 L 59.0 -42.8 L 61.6 -26.8 L 64.2 -11.4 L 66.8 3.5 L 69.4 17.8 L 72.0 31.7 L 74.6 45.0 L 77.2 57.8 L 79.8 70.0 L 82.4 81.8 L 85.0 93.0 L 87.6 103.7 L 90.2 113.8 L 92.8 123.5 L 95.4 132.6 L 98.0 141.2 L 100.6 149.2 L 103.2 156.7 L 105.8 163.7 L 108.4 170.2 L 111.0 176.2 L 113.6 181.6 L 116.2 186.5 L 118.8 190.9 L 121.4 194.7 L 124.0 198.1 L 126.6 200.9 L 129.2 203.2 L 131.8 204.9 L 134.4 206.1 L 137.0 206.8 L 139.6 207.0 L 142.2 206.7 L 144.8 205.8 L 147.4 204.4 L 150.0 202.5 L 152.6 200.0 L 155.2 197.0 L 157.8 193.5 L 160.4 189.5 L 163.0 184.9 L 165.6 179.9 L 168.2 174.3 L 170.8 168.1 L 173.4 161.5 L 176.0 154.3 L 178.6 146.6 L 181.2 138.3 L 183.8 129.6 L 186.4 120.3 L 189.0 110.5 L 191.6 100.2 L 194.2 89.3 L 196.8 77.9 L 199.4 66.0 L 202.0 53.6 L 204.6 40.6 L 207.2 27.1 L 209.8 13.1 L 212.4 -1.4 L 215.0 -16.5 L 217.6 -32.1 L 220.2 -48.2 L 222.8 -64.8 L 225.4 -82.0 L 228.0 -99.7 L 230.6 -117.9 L 233.2 -136.6 L 235.8 -155.9 L 238.4 -175.7 L 241.0 -196.0 L 243.6 -216.9 L 246.2 -238.2 L 248.8 -260.1 L 251.4 -282.6 L 254.0 -305.5 L 256.6 -329.0 L 259.2 -353.0 L 261.8 -377.5 L 264.4 -402.5 L 267.0 -428.1 L 269.6 -454.2 L 272.2 -480.8 L 274.8 -508.0 L 277.4 -535.7 L 280.0 -563.9" fill="none" stroke="blue" stroke-width="2" />
    <!-- Intercepts -->
    <circle cx="171.7" cy="166.0" r="3" fill="red" /><circle cx="106.7" cy="166.0" r="3" fill="red" /><circle cx="193.3" cy="93.0" r="3" fill="red" />
    <!-- Labels -->
    <text x="171.7" y="181.0" font-family="sans-serif" font-size="10" text-anchor="middle" dominant-baseline="hanging" fill="#333">-0.5</text><text x="106.7" y="181.0" font-family="sans-serif" font-size="10" text-anchor="middle" dominant-baseline="hanging" fill="#333">-2</text><text x="203.3" y="93.0" font-family="sans-serif" font-size="10" text-anchor="start" dominant-baseline="middle" fill="#333">2</text>
    <!-- Equation -->
    <text x="150" y="295" font-family="sans-serif" font-size="12" text-anchor="middle" fill="#666">y = 2x² + 5x + 2</text>
  </svg>