<svg width="300" height="300" viewBox="0 0 300 300" xmlns="http://www.w3.org/2000/svg" style="background:white; border:1px solid #eee;">
    <defs>
      <marker id="arrowhead" markerWidth="10" markerHeight="7" refX="9" refY="3.5" orient="auto">
        <polygon points="0 0, 10 3.5, 0 7" fill="#888" />
      </marker>
    </defs>
    <!-- Axes -->
    <line x1="10" y1="172.1951219512195" x2="290" y2="172.1951219512195" stroke="#888" stroke-width="1" marker-end="url(#arrowhead)" />
    <line x1="176" y1="290" x2="176" y2="10" stroke="#888" stroke-width="1" marker-end="url(#arrowhead)" />
    <!-- Graph -->
    <path d="M 20.0 -335.1 L 22.6 -312.5 L 25.2 -290.5 L 27.8 -268.9 L 30.4 -247.9 L 33.0 -227.3 L 35.6 -207.3 L 38.2 -187.7 L 40.8 -168.7 L 43.4 -150.2 L 46.0 -132.2 L 48.6 -114.7 L 51.2 -97.7 L 53.8 -81.2 L 56.4 -65.2 L 59.0 -49.8 L 61.6 -34.8 L 64.2 -20.3 L 66.8 -6.4 L 69.4 7.1 L 72.0 20.0 L 74.6 32.4 L 77.2 44.4 L 79.8 55.8 L 82.4 66.7 L 85.0 77.1 L 87.6 87.0 L 90.2 96.4 L 92.8 105.2 L 95.4 113.6 L 98.0 121.5 L 100.6 128.8 L 103.2 135.7 L 105.8 142.0 L 108.4 147.8 L 111.0 153.2 L 113.6 158.0 L 116.2 162.3 L 118.8 166.1 L 121.4 169.4 L 124.0 172.2 L 126.6 174.5 L 129.2 176.3 L 131.8 177.5 L 134.4 178.3 L 137.0 178.5 L 139.6 178.3 L 142.2 177.5 L 144.8 176.3 L 147.4 174.5 L 150.0 172.2 L 152.6 169.4 L 155.2 166.1 L 157.8 162.3 L 160.4 158.0 L 163.0 153.2 L 165.6 147.8 L 168.2 142.0 L 170.8 135.7 L 173.4 128.8 L 176.0 121.5 L 178.6 113.6 L 181.2 105.2 L 183.8 96.4 L 186.4 87.0 L 189.0 77.1 L 191.6 66.7 L 194.2 55.8 L 196.8 44.4 L 199.4 32.4 L 202.0 20.0 L 204.6 7.1 L 207.2 -6.4 L 209.8 -20.3 L 212.4 -34.8 L 215.0 -49.8 L 217.6 -65.2 L 220.2 -81.2 L 222.8 -97.7 L 225.4 -114.7 L 228.0 -132.2 L 230.6 -150.2 L 233.2 -168.7 L 235.8 -187.7 L 238.4 -207.3 L 241.0 -227.3 L 243.6 -247.9 L 246.2 -268.9 L 248.8 -290.5 L 251.4 -312.5 L 254.0 -335.1 L 256.6 -358.2 L 259.2 -381.8 L 261.8 -405.9 L 264.4 -430.5 L 267.0 -455.6 L 269.6 -481.2 L 272.2 -507.4 L 274.8 -534.0 L 277.4 -561.1 L 280.0 -588.8" fill="none" stroke="blue" stroke-width="2" />
    <!-- Intercepts -->
    <circle cx="150.0" cy="172.2" r="3" fill="red" /><circle cx="124.0" cy="172.2" r="3" fill="red" /><circle cx="176.0" cy="121.5" r="3" fill="red" />
    <!-- Labels -->
    <text x="150.0" y="187.2" font-family="sans-serif" font-size="10" text-anchor="middle" dominant-baseline="hanging" fill="#333">-0.5</text><text x="124.0" y="187.2" font-family="sans-serif" font-size="10" text-anchor="middle" dominant-baseline="hanging" fill="#333">-1</text><text x="186.0" y="121.5" font-family="sans-serif" font-size="10" text-anchor="start" dominant-baseline="middle" fill="#333">1</text>
    <!-- Equation -->
    <text x="150" y="295" font-family="sans-serif" font-size="12" text-anchor="middle" fill="#666">y = 2x² + 3x + 1</text>
  </svg>