<svg width="300" height="300" viewBox="0 0 300 300" xmlns="http://www.w3.org/2000/svg" style="background:white; border:1px solid #eee;">
    <defs>
      <marker id="arrowhead" markerWidth="10" markerHeight="7" refX="9" refY="3.5" orient="auto">
        <polygon points="0 0, 10 3.5, 0 7" fill="#888" />
      </marker>
    </defs>
    <!-- Axes -->
    <line x1="10" y1="202" x2="290" y2="202" stroke="#888" stroke-width="1" marker-end="url(#arrowhead)" />
    <line x1="228" y1="290" x2="228" y2="10" stroke="#888" stroke-width="1" marker-end="url(#arrowhead)" />
    <!-- Graph -->
    <path d="M 20.0 46.0 L 22.6 56.3 L 25.2 66.3 L 27.8 76.0 L 30.4 85.5 L 33.0 94.8 L 35.6 103.7 L 38.2 112.4 L 40.8 120.9 L 43.4 129.1 L 46.0 137.0 L 48.6 144.7 L 51.2 152.1 L 53.8 159.2 L 56.4 166.1 L 59.0 172.8 L 61.6 179.1 L 64.2 185.2 L 66.8 191.1 L 69.4 196.7 L 72.0 202.0 L 74.6 207.1 L 77.2 211.9 L 79.8 216.4 L 82.4 220.7 L 85.0 224.8 L 87.6 228.5 L 90.2 232.0 L 92.8 235.3 L 95.4 238.3 L 98.0 241.0 L 100.6 243.5 L 103.2 245.7 L 105.8 247.6 L 108.4 249.3 L 111.0 250.8 L 113.6 251.9 L 116.2 252.8 L 118.8 253.5 L 121.4 253.9 L 124.0 254.0 L 126.6 253.9 L 129.2 253.5 L 131.8 252.8 L 134.4 251.9 L 137.0 250.8 L 139.6 249.3 L 142.2 247.6 L 144.8 245.7 L 147.4 243.5 L 150.0 241.0 L 152.6 238.3 L 155.2 235.3 L 157.8 232.0 L 160.4 228.5 L 163.0 224.8 L 165.6 220.7 L 168.2 216.4 L 170.8 211.9 L 173.4 207.1 L 176.0 202.0 L 178.6 196.7 L 181.2 191.1 L 183.8 185.2 L 186.4 179.1 L 189.0 172.8 L 191.6 166.1 L 194.2 159.2 L 196.8 152.1 L 199.4 144.7 L 202.0 137.0 L 204.6 129.1 L 207.2 120.9 L 209.8 112.4 L 212.4 103.7 L 215.0 94.8 L 217.6 85.5 L 220.2 76.0 L 222.8 66.3 L 225.4 56.3 L 228.0 46.0 L 230.6 35.5 L 233.2 24.7 L 235.8 13.6 L 238.4 2.3 L 241.0 -9.3 L 243.6 -21.1 L 246.2 -33.2 L 248.8 -45.5 L 251.4 -58.1 L 254.0 -71.0 L 256.6 -84.1 L 259.2 -97.5 L 261.8 -111.2 L 264.4 -125.1 L 267.0 -139.3 L 269.6 -153.7 L 272.2 -168.4 L 274.8 -183.3 L 277.4 -198.5 L 280.0 -214.0" fill="none" stroke="blue" stroke-width="2" />
    <!-- Intercepts -->
    <circle cx="176.0" cy="202.0" r="3" fill="red" /><circle cx="72.0" cy="202.0" r="3" fill="red" /><circle cx="228.0" cy="46.0" r="3" fill="red" />
    <!-- Labels -->
    <text x="176.0" y="217.0" font-family="sans-serif" font-size="10" text-anchor="middle" dominant-baseline="hanging" fill="#333">-2</text><text x="72.0" y="217.0" font-family="sans-serif" font-size="10" text-anchor="middle" dominant-baseline="hanging" fill="#333">-6</text><text x="238.0" y="46.0" font-family="sans-serif" font-size="10" text-anchor="start" dominant-baseline="middle" fill="#333">12</text>
    <!-- Equation -->
    <text x="150" y="295" font-family="sans-serif" font-size="12" text-anchor="middle" fill="#666">y = 1x² + 8x + 12</text>
  </svg>